<svg width="50" height="50" viewBox="0 0 50 50" fill="none" xmlns="http://www.w3.org/2000/svg">
<rect width="50" height="50" rx="20" fill="#3167F2"/>
<path d="M21.2787 15.7299L21.6713 17.7916C22.3603 21.4106 25.1908 24.2411 28.8098 24.9301L30.8715 25.3226C31.3579 25.4153 31.3579 26.1117 30.8715 26.2044L28.8098 26.5969C25.1908 27.286 22.3603 30.1164 21.6713 33.7354L21.2787 35.7971C21.1861 36.2835 20.4897 36.2835 20.397 35.7971L20.0045 33.7354C19.3154 30.1164 16.485 27.286 12.866 26.5969L10.8043 26.2044C10.3178 26.1117 10.3178 25.4153 10.8043 25.3226L12.866 24.9301C16.485 24.2411 19.3154 21.4106 20.0045 17.7916L20.397 15.7299C20.4897 15.2435 21.1861 15.2435 21.2787 15.7299Z" fill="white"/>
<path d="M29.6532 11.0347L29.8226 11.9245C30.1199 13.4864 31.3416 14.708 32.9035 15.0054L33.7933 15.1748C34.0032 15.2148 34.0032 15.5153 33.7933 15.5554L32.9035 15.7248C31.3416 16.0221 30.12 17.2437 29.8226 18.8057L29.6532 19.6955C29.6132 19.9054 29.3126 19.9054 29.2726 19.6955L29.1032 18.8057C28.8059 17.2437 27.5842 16.0222 26.0223 15.7248L25.1325 15.5554C24.9226 15.5154 24.9226 15.2148 25.1325 15.1748L26.0223 15.0054C27.5842 14.708 28.8058 13.4864 29.1032 11.9245L29.2726 11.0347C29.3126 10.8247 29.6132 10.8247 29.6532 11.0347Z" fill="white"/>
<path d="M34.1886 28.0999L34.4003 29.2122C34.772 31.1646 36.299 32.6916 38.2514 33.0633L39.3637 33.2751C39.6261 33.325 39.6261 33.7008 39.3637 33.7507L38.2514 33.9625C36.299 34.3342 34.772 35.8612 34.4003 37.8136L34.1886 38.9258C34.1386 39.1883 33.7628 39.1883 33.7129 38.9258L33.5011 37.8136C33.1294 35.8612 31.6024 34.3342 29.65 33.9625L28.5378 33.7507C28.2753 33.7007 28.2753 33.325 28.5378 33.2751L29.65 33.0633C31.6024 32.6916 33.1294 31.1646 33.5011 29.2122L33.7129 28.0999C33.7629 27.8375 34.1386 27.8375 34.1886 28.0999Z" fill="white"/>
</svg>
