<svg width="51" height="50" viewBox="0 0 51 50" fill="none" xmlns="http://www.w3.org/2000/svg">
  <path
    d="M26.2785 1.02881C-4.25201 -0.670496 -10.2851 48.9507 24.1958 49.9152C60.4213 52.3516 58.2677 1.49477 26.2785 1.02881ZM26.0302 16.8355C39.4321 17.2908 37.972 31.8901 24.6529 30.8935C11.5637 30.1988 15.0296 16.1323 26.0302 16.8355Z"
    fill="#EE6F65" />
  <path
    d="M17.7488 17.3387C19.7918 11.2703 31.7945 11.0348 34.9918 16.2894C36.0365 18.6506 34.9915 19.7001 33.1627 18.1258C31.3339 16.5515 31.0727 14.9773 26.8926 15.2397C22.7126 15.5021 17.7488 17.3387 17.7488 17.3387Z"
    fill="#F2938C" />
  <path
    d="M26.7153 0.000150512C24.4196 0.00841622 22.1829 0.403675 20.3612 1.28432C17.9971 2.42719 16.1796 2.0431 14.0911 3.55757C7.77088 5.47961 -1.64034 13.947 0.245129 21.2391C0.60035 22.6129 1.2748 30.8155 1.8124 31.5951C11.6342 44.8423 10.1731 42.4627 25.5287 43.3792C34.9917 45.6673 37.8527 41.6449 45.4416 36.142C47.6725 34.5243 48.3445 30.0228 49.6215 27.5535C52.6984 18.7492 50.1928 7.71293 40.9999 3.30476C38.6246 2.15627 35.8336 1.80814 33.4238 1.03152C31.3656 0.368238 29.0109 -0.00864279 26.7153 0.000150512ZM25.4138 11.3124C31.4327 11.1247 39.0227 15.4548 37.6042 21.7444C36.8206 25.5331 34.9918 30.0794 30.8118 31.0898C26.6318 32.1001 21.6677 31.8478 16.7039 27.8063C13.678 22.8886 14.1382 11.4759 25.4138 11.3124Z"
    fill="#00A6CC" />
  <path
    d="M25.9287 0.674034C24.4404 0.699622 23.1242 0.878742 22.2236 1.28807C14.6016 4.48751 7.41922 3.46591 2.4568 14.7516C0.979354 20.2102 2.45697 20.392 2.64172 24.3947C2.82646 28.3974 2.08757 27.1239 3.7502 30.3988C5.41283 33.6738 7.07519 39.8596 13.9104 40.4054C20.7456 40.9512 27.0267 40.2238 30.7214 40.5876C34.416 40.9515 37.3716 38.2224 40.8815 36.403C48.6937 33.5996 51.5764 17.5317 47.5318 11.1127C42.5622 4.39694 33.7943 0.167539 25.9287 0.674034ZM25.2453 8.99593C39.0959 9.71707 44.4674 17.5217 35.8936 29.1257C34.0464 31.4907 30.906 32.764 28.135 32.4001C25.364 32.0362 22.9628 32.582 20.1918 32.0362C17.4207 31.4904 16.497 29.1254 14.465 26.5782C12.4329 24.0311 12.2478 20.5739 13.541 18.0267C16.299 11.9649 18.4361 8.975 25.2453 8.99593Z"
    fill="#00C6F4" />
  <path
    d="M12.8021 5.3369C10.7537 6.04326 8.43935 7.4064 7.07529 9.23295C6.56649 9.91434 2.40488 16.5351 3.75012 17.2106C4.74705 17.7112 5.36686 16.1672 7.07529 17.025C7.37123 17.1737 7.90174 23.374 10.9547 20.9211C12.8882 19.3677 11.6172 14.9268 12.8021 12.9435C14.0079 10.925 15.9501 8.85422 17.6051 7.19211C23.6215 2.90089 14.149 5.04786 12.8021 5.3369Z"
    fill="#24D6FF" />
  <path
    d="M10.0311 24.0751C2.20542 21.7966 7.31099 35.7184 10.2159 36.6909C15.6072 38.4957 22.8763 37.7174 16.3121 31.1251C15.4419 30.2511 15.0771 29.1426 14.2801 28.3421C13.4609 27.5194 13.1787 26.494 12.4327 25.7448C11.8468 25.1565 10.9864 24.8426 10.0311 24.0751Z"
    fill="#24D6FF" />
  <path
    d="M25.3641 33.3514C22.8385 33.01 20.5995 35.9875 22.4083 37.804C23.4935 38.8939 31.8066 39.0216 33.1229 38.3606C35.0159 37.41 37.9309 36.5003 39.4039 35.0211C41.2209 33.1963 44.1054 31.057 40.8817 28.8988C38.5027 27.306 30.7432 36.5927 25.3641 33.3514Z"
    fill="#24D6FF" />
  <path
    d="M43.2833 11.8303C40.5122 11.313 41.2513 15.4816 41.2513 17.0251C41.2513 19.0728 41.0907 20.7999 40.697 22.7764C40.1198 25.675 40.9231 27.1741 43.4681 27.6001C47.5089 29.3251 48.9984 10.1372 43.2833 11.8303Z"
    fill="#24D6FF" />
  <path
    d="M27.7656 1.6264C25.6043 0.390584 22.5939 4.36358 24.6251 5.89352C26.2419 7.1114 30.817 6.66769 32.938 7.37775C34.7092 7.97068 36.9989 9.60403 39.0342 9.60403C39.3047 9.60403 40.2624 8.9375 40.3274 8.67643C41.6552 3.3425 34.0169 3.00308 30.9059 1.44094C30.1155 1.04393 28.5632 1.6264 27.7656 1.6264Z"
    fill="#24D6FF" />
  <path
    d="M4.16362 36.8856C7.47881 47.7234 21.8427 49.8858 31.857 48.4294C36.0365 47.7741 42.5679 43.7073 44.6579 41.0835C46.7479 38.4598 45.4416 37.8039 45.4416 37.8039C40.7192 42.4655 34.0963 47.3443 24.8025 44.7562C15.3543 43.6963 10.4862 46.1044 4.16362 36.8856Z"
    fill="#F2938C" />
</svg>
  