<svg width="51" height="50" viewBox="0 0 51 50" fill="none" xmlns="http://www.w3.org/2000/svg">
  <path
    d="M25.8485 1.40781C-4.31044 -0.278339 -10.2701 48.9588 23.7911 49.9158C59.5757 52.3335 57.4483 1.87025 25.8485 1.40781ZM25.6033 17.0922C38.842 17.544 37.3996 32.0303 24.2426 31.0414C11.3128 30.3521 14.7365 16.3945 25.6033 17.0922Z"
    fill="#EE6F65" />
  <path
    d="M26.2799 0.38724C20.5823 0.0788032 15.5658 2.87821 10.4544 4.56794C-2.4363 10.7659 -0.724882 19.8035 1.68046 31.7376C5.72654 43.9008 19.2891 45.7615 31.3018 43.9516C37.3436 42.6808 37.2818 41.7096 44.7783 36.2493C46.982 34.6441 47.6459 30.1775 48.9073 27.7273C53.1873 12.7837 47.7655 4.68817 32.9065 1.41106C30.8737 0.75248 28.5478 0.378428 26.2799 0.38724ZM24.8653 13.6946C27.0411 14.4674 28.5199 11.6518 31.3587 12.94C35.4448 14.7943 37.8107 18.2034 37.0365 21.9629C35.738 32.3835 24.7777 34.8002 16.3902 27.978C16.3904 27.9782 12.5194 20.4592 16.6486 15.4465C18.9713 12.6268 21.2544 12.4122 24.8653 13.6946Z"
    fill="#974116" />
  <path
    d="M25.503 1.83698C24.0328 1.86237 22.7327 2.0401 21.843 2.44626C14.1923 5.06567 7.18068 3.68725 2.31699 15.0248C0.857354 20.441 2.31699 20.6214 2.49949 24.593C2.68198 28.5647 1.95208 27.3012 3.59447 30.5507C5.23686 33.8003 6.879 39.9383 13.631 40.4798C20.383 41.0214 26.5876 40.2996 30.2373 40.6606C33.887 41.0217 36.8066 38.3137 40.2738 36.5084C47.9909 33.7267 50.8385 17.7832 46.8431 11.4139C41.9174 4.93574 33.0518 1.54503 25.503 1.83698ZM24.8279 9.31337C38.5099 10.0289 43.816 17.7732 35.3466 29.2873C33.5219 31.634 30.4197 32.8974 27.6824 32.5364C24.9451 32.1753 22.5732 32.7169 19.8359 32.1752C17.0986 31.6337 16.1861 29.2869 14.1788 26.7595C12.1715 24.232 11.9887 20.8016 13.2661 18.2742C15.9907 12.2593 18.1016 9.29261 24.8279 9.31337Z"
    fill="#BA501B" />
  <path
    d="M10.9494 43.7103C23.7457 48.1655 33.8631 46.3527 45.2731 38.3733C40.6439 50.2071 16.1893 50.4791 10.9494 43.7103Z"
    fill="#F2938C" />
  <path
    d="M24.7562 15.0726C20.9712 12.4276 17.5643 15.3882 16.4979 18.7174C18.9673 16.8607 22.4774 16.1696 25.5304 16.114L24.7562 15.0726Z"
    fill="#F2938C" />
  <path
    d="M30.821 13.9011C30.821 13.9011 26.8209 14.1614 27.208 15.4631C27.5951 16.7649 30.9501 16.2441 32.2404 17.2856C33.5308 18.3269 35.0793 20.67 35.0793 20.67C35.0793 20.67 33.6598 14.8122 30.821 13.9011Z"
    fill="#F2938C" />
  <path
    d="M12.8959 32.169C13.2645 31.5136 14.7129 29.3532 15.5083 28.0661C16.9191 25.8706 15.8877 22.4765 12.7478 23.7215C9.1797 25.7917 7.96484 30.1902 5.57386 33.3549C5.30149 33.572 5.29578 33.717 5.4372 33.5843C5.25444 33.5851 5.04556 33.6121 5.16388 33.5843C4.38701 30.7903 6.48409 26.6584 7.94304 24.1795C10.8432 19.0561 13.6956 14.106 17.6544 9.59499C19.4699 7.49744 21.7579 5.55398 23.4856 3.02261C24.4552 1.9536 23.3873 -0.268892 21.7012 0.0268066C14.4829 0.536099 8.42791 13.0847 4.6688 18.415C3.9773 19.6507 3.37583 21.1773 2.35739 22.0719C2.22817 22.0991 2.13433 22.2205 2.34217 22.2036C2.4163 22.394 2.53669 22.4491 2.43532 22.1952C2.45323 21.4253 2.7172 20.6215 2.92876 19.8355C4.51441 14.6086 9.01069 9.08482 11.154 5.57859C11.8006 4.89243 12.6254 4.3095 11.6512 4.75065C8.82992 7.4183 2.46075 15.1541 1.201 21.1004C1.10568 21.8603 0.77278 22.4373 1.39933 23.2469C2.03383 23.6836 2.74886 23.6137 3.20683 23.2271C3.7622 22.807 4.15746 22.2818 4.49037 21.7743C7.37037 17.2947 16.3531 1.08954 22.1131 1.92001C22.1295 1.64351 21.9423 1.78032 21.9154 2.05342C21.7515 2.33673 21.4384 2.64211 21.1117 3.07436C17.128 7.42912 12.7267 11.9535 9.64053 17.3507C7.45358 21.3611 4.64614 25.0493 3.44416 29.5397C2.72663 31.6599 2.48169 36.1629 5.87632 35.5273C7.26339 34.9712 7.36155 34.155 8.05608 33.2125C9.36427 31.3438 11.8336 25.5317 14.1333 25.4565C14.3783 26.6881 13.0092 28.2537 12.2643 29.4826C10.7273 31.9814 9.14354 34.3849 8.25164 37.2784C7.94226 38.3925 7.70354 39.7502 8.71766 40.7804C9.78514 41.385 10.8004 41.1755 11.3371 40.4925C12.3183 39.0702 13.2974 38.27 14.1807 37.0612C15.8339 35.2327 18.1153 31.6898 20.4028 31.099C21.769 33.6692 13.7359 40.192 17.0924 42.7597C18.8045 43.8811 20.4164 41.9032 21.3331 40.8587C23.7738 38.4251 26.5954 33.0477 29.5554 31.8902C31.1114 32.9349 27.9994 36.1956 27.3244 37.4186C26.6175 38.2092 25.805 40.0193 26.181 41.2988C26.0286 41.665 26.301 42.4344 27.3181 43.0805C28.8056 43.5925 30.4123 42.5497 31.1508 41.3676C36.2819 31.763 41.6786 22.8396 47.9714 15.0699C48.62 14.535 49.0952 13.8874 49.3496 14.1289C49.207 14.0575 49.1604 14.0033 49.1133 13.8579C45.5916 21.7868 40.3824 28.2494 38.5498 35.8445C38.3469 36.7111 38.0444 37.6557 38.422 38.5979C38.8729 39.6977 40.5559 39.0539 40.7119 38.3602C42.56 34.9887 44.9915 31.6962 46.4533 29.2406C47.8107 26.9261 48.5541 25.5612 49.3125 24.0497C50.0762 22.4746 50.2709 21.4154 50.8712 20.6195C49.9653 21.0886 49.6477 22.5279 48.8741 23.8071C48.0549 25.2102 47.1219 26.7489 45.796 28.8314C44.2584 31.2333 41.733 34.4535 39.8449 37.7452C39.59 37.9775 39.4351 38.2735 39.42 38.1444C40.3911 29.7613 46.3488 23.4499 50.4084 14.7876C50.7706 14.1283 50.6405 12.8488 49.683 12.6524C46.353 11.2859 33.6134 33.1779 31.2629 37.4898C30.3705 38.9041 29.7163 41.6334 27.8401 41.3474C28.0673 41.7357 28.1864 41.4015 27.9636 41.0333C27.148 38.4046 34.8493 33.6608 30.5405 30.3023C26.6234 28.2727 21.3488 39.4363 18.2154 41.1509C18.1758 41.1551 18.1229 41.1679 18.1733 41.1645C18.7574 38.3847 21.399 36.0097 22.2979 33.0279C23.0942 31.2064 21.9673 28.6467 19.7177 29.2193C16.5615 30.4033 14.7991 33.4392 12.6747 35.8088C11.7878 36.9721 10.5592 38.1339 9.88867 39.1707C9.79223 39.2001 9.69804 39.3653 10.0336 39.3241C9.64451 37.2898 11.8852 34.0438 12.8959 32.169Z"
    fill="#FFEDCF" />
  <path
    d="M31.754 8.87568C32.0383 8.27355 33.4233 6.20732 33.7483 4.77656C34.3066 2.24432 32.0198 0.47292 29.8986 2.41141C27.8851 4.07182 26.4586 6.23009 24.8728 8.26866C24.1745 9.05315 23.554 10.4063 22.6917 10.5764C22.9043 10.5891 23.0172 10.7214 23.1853 11.0223C23.4998 9.61401 24.6401 7.68669 25.4091 6.38759C27.2474 3.17208 27.1339 1.97035 27.0157 2.01642C26.6565 2.15654 25.7571 3.67814 24.3175 5.68293C23.6275 6.7359 19.562 11.8027 22.6916 12.3132C23.2821 12.3392 23.91 12.1324 24.4156 11.635C26.1017 9.99059 27.2434 8.12627 28.8012 6.35312C29.7035 5.33724 30.6351 4.08526 31.8105 3.56331C31.851 3.57893 31.8557 3.53399 31.7005 3.48958C31.8844 3.55939 31.8889 3.96232 31.8232 4.33183C31.4254 5.81451 30.2655 7.19485 29.6606 8.78005C28.5166 11.0804 30.0737 13.8544 32.7005 11.9444C35.0377 10.3388 36.7497 8.21168 38.8621 6.52248C39.2775 6.18952 39.6611 5.89034 40.0509 5.68529C40.2968 5.55511 40.3756 5.40041 40.2685 5.43427C40.0527 5.23411 39.9226 5.14773 39.8939 5.09581C39.1634 8.50136 36.7101 11.433 35.5465 14.6796C34.7423 16.3148 35.695 17.9374 37.4865 16.9275C40.5738 15.5506 44.3251 9.99713 45.378 9.29911C45.9275 8.83824 47.1201 7.86311 45.1487 8.83013C43.3469 9.43932 39.646 14.8129 36.4313 15.7478C36.4906 15.7138 36.5566 15.7811 36.7256 15.95C37.5792 13.5199 39.4766 10.8234 40.7621 8.10838C41.2936 6.84348 42.5334 4.90979 40.9483 3.74707C40.182 3.65353 39.5796 3.81582 39.1874 4.02174C38.6217 4.3197 38.1328 4.67831 37.6873 5.03578C35.3865 6.72804 33.4676 9.39151 30.977 10.6219C31.1349 10.6458 31.1867 10.677 31.2932 10.8075C31.0535 10.5043 31.5082 9.38008 31.754 8.87568Z"
    fill="#FFEDCF" />
  <path
    d="M19.0092 1.16414C19.0092 1.16414 17.8538 1.63853 16.9541 2.35277C16.5153 2.62361 15.6057 3.5703 16.0494 3.8646C16.1909 3.81705 16.5357 3.39501 17.3081 2.83101C18.1573 2.29283 21.6825 0.191447 22.3767 1.52013C22.5385 2.1774 22.4602 2.4991 22.4496 2.72473C22.3907 3.98623 22.9042 1.92157 22.8317 1.42842C22.3518 -0.204855 20.126 0.684422 19.0092 1.16414Z"
    fill="#FFF8EB" />
  <path
    d="M10.6891 10.7757C12.8188 7.99706 13.2038 5.77605 9.96316 10.698C7.09613 14.7852 7.10201 16.0813 10.6891 10.7757Z"
    fill="#FFF8EB" />
  <path
    d="M14.0796 13.0005C13.9021 13.067 18.2821 7.7333 17.7737 7.73444C17.5188 7.74813 16.0499 9.27688 14.4902 11.3462C13.841 11.9739 7.78566 21.3017 9.38602 19.8513C10.8292 17.8445 12.3207 15.4784 14.0796 13.0005Z"
    fill="#FFF8EB" />
  <path
    d="M4.85621 34.5674C3.47226 34.1214 4.26695 30.7249 3.91397 30.8386C3.36622 31.2928 3.09334 33.778 3.9862 34.7377C4.30665 35.2533 5.15997 35.3388 5.63014 35.001C6.98616 34.3279 8.63746 31.2102 8.77438 30.6362C9.08264 29.4715 6.18213 34.6883 4.85621 34.5674Z"
    fill="#FFF8EB" />
  <path
    d="M15.4917 26.0254C15.4917 26.0254 15.5549 25.6716 15.3843 25.1676C15.4069 25.0459 15.4144 24.5703 14.8122 24.2438C14.2159 24.1538 12.8468 24.4916 12.8323 24.8986C12.9383 25.0346 13.8645 24.6278 14.7065 24.8664C14.7166 24.7041 14.5562 25.0165 14.781 25.4111C15.0043 25.9322 14.7545 26.5994 14.4673 27.254C14.0204 28.2215 13.1837 29.249 12.9771 30.0659C12.8964 30.5265 13.2416 30.0277 13.7583 29.3713C14.3608 28.5888 15.4511 27.2711 15.4917 26.0254Z"
    fill="#FFF8EB" />
  <path
    d="M11.917 38.1515C11.917 38.1515 11.5884 38.7376 11.0597 39.1576C10.6364 39.4956 9.8639 39.6134 9.38924 39.288C9.00461 39.1639 9.35913 37.6386 9.12967 37.8058C8.80784 38.0107 8.43212 39.2457 9.06403 39.7473C10.3442 40.7049 11.7493 39.7075 12.4995 38.4526C13.8155 36.7474 15.5811 34.0986 16.7413 32.9275C16.9382 32.663 16.614 32.5963 15.4327 33.7595C14.1011 35.0659 13.4643 36.2093 11.917 38.1515Z"
    fill="#FFF8EB" />
  <path
    d="M21.6933 30.8079C21.6933 30.8079 21.6209 30.5675 21.4347 30.3171C21.2718 29.8593 20.0235 29.5836 20.1804 30.17C20.3006 30.3044 20.6635 30.3512 20.9152 30.7041C21.4526 31.2767 21.0229 32.5471 21.0006 32.9305C21.0278 33.0576 21.6129 32.9412 21.8188 31.7018C21.8597 31.3983 21.8118 31.0904 21.6933 30.8079Z"
    fill="#FFF8EB" />
  <path
    d="M18.7495 41.4735C18.7495 41.4735 18.4621 41.6731 18.2222 41.6194C17.5865 41.3727 18.3258 39.1466 17.9712 39.167C17.585 39.3185 17.1412 40.9793 17.4651 41.7167C18.5285 43.5248 21.0312 40.3661 21.7709 39.6239C24.7608 35.9587 19.6531 41.1208 18.7495 41.4735Z"
    fill="#FFF8EB" />
  <path
    d="M30.9634 32.7064C30.9634 32.7064 30.9321 31.9174 30.1863 31.3313C29.5111 30.9109 28.7717 31.0784 28.2911 31.4131C27.7975 31.7568 27.7403 32.0878 27.862 32.1156C28.0467 32.1578 29.1331 31.1612 29.8122 31.8534C30.9802 32.8031 30.0154 34.9223 29.2558 35.8593C26.9132 39.1504 30.689 35.5786 30.923 33.8835C31.0179 33.5115 31.0374 33.1024 30.9634 32.7064Z"
    fill="#FFF8EB" />
  <path
    d="M49.8728 15.0095C50.4992 13.1368 48.7349 13.1238 47.6034 14.099C47.1608 14.3625 46.2566 15.3101 46.6958 15.5776C46.8965 15.4311 48.5148 13.844 49.3103 14.1204C49.4955 15.8116 46.6216 19.0686 46.3557 20.1361C46.2201 20.9058 49.7381 16.262 49.8728 15.0095Z"
    fill="#FFF8EB" />
  <path
    d="M40.8052 5.96013C40.8625 5.60179 41.2185 5.09188 40.5282 4.4196C39.6026 3.84016 37.8931 5.51611 38.1917 5.88745C38.4176 5.89356 39.9131 4.65196 40.1831 4.96642C40.3339 4.95917 40.1962 5.30042 40.2005 5.69916C40.0376 7.16483 38.7763 9.43827 38.2681 10.3998C38.2082 10.717 38.3599 10.5632 38.5979 10.2834C39.5105 9.35696 40.5506 7.54542 40.8052 5.96013Z"
    fill="#FFF8EB" />
  <path
    d="M32.7321 2.83164C32.211 2.44485 31.4125 1.96304 30.6864 2.39188C29.8484 2.78225 29.5379 3.42112 29.7317 3.4794C29.9129 3.49519 31.3604 2.46168 31.845 3.02586C32.1141 3.24992 32.3643 3.27802 32.3502 3.34843C32.9874 4.14234 31.8122 6.48603 31.7376 6.97307C32.0968 7.45496 33.9911 3.74787 32.7321 2.83164Z"
    fill="#FFF8EB" />
  <path
    d="M24.0252 10.2817C23.8518 10.5381 23.4856 10.9166 22.9728 10.9726C23.0464 11.0125 23.064 11.0349 23.081 11.1024C23.0418 10.4148 23.2473 9.60993 23.012 9.68191C22.9721 9.69413 22.5475 10.255 22.4878 11.1024C22.637 11.9735 23.7808 11.5447 24.2391 11.0438C25.505 9.46701 26.9117 7.41605 26.9885 6.9736C27.0598 6.56255 26.7304 6.97665 26.2052 7.62598C25.6611 8.29905 24.8273 9.26362 24.0252 10.2817Z"
    fill="#FFF8EB" />
  <path
    d="M32.1049 10.948C29.5876 11.7627 31.0032 9.44488 30.4938 9.22727C30.3313 9.25834 29.5268 10.095 30.2225 11.2852C31.6456 12.7783 33.6704 10.6924 34.3892 9.62532C35.1412 8.81326 35.9208 8.33852 36.1044 8.14692C36.5072 7.72645 35.2989 7.99745 33.9903 9.22291C33.3483 9.8116 32.8643 10.7094 32.1049 10.948Z"
    fill="#FFF8EB" />
  <path
    d="M36.9591 15.9935C36.9749 16.0129 36.4828 16.0712 36.4663 16.0028C36.329 15.5718 36.9856 14.2092 36.6172 14.3004C36.3535 14.2936 35.4988 15.7035 35.9433 16.3774C37.1626 17.5963 40.2857 14.6749 40.4105 14.5139C40.7396 13.8311 37.5731 15.9607 36.9591 15.9935Z"
    fill="#FFF8EB" />
  <path
    d="M10.4977 22.1669C10.4977 22.1669 7.78791 25.4212 6.9492 28.0246C6.11049 30.6281 8.49766 26.3324 10.046 24.9005C11.5945 23.4687 11.401 21.5161 10.4977 22.1669Z"
    fill="#E5804D" />
  <path
    d="M4.94915 22.6226C4.94915 22.6226 3.20712 24.3148 3.14259 25.7466C3.398 28.201 7.35137 18.9121 7.33632 19.238C7.33632 19.238 5.33629 21.8415 4.94915 22.6226Z"
    fill="#E5804D" />
  <path
    d="M8.49765 10.7769C8.49765 10.7769 6.4331 13.3153 6.04596 14.5519C5.65882 15.7885 8.43313 11.6882 8.49765 10.7769Z"
    fill="#E5804D" />
  <path
    d="M18.24 4.46368C15.8495 5.32094 9.87544 14.7942 9.14294 16.5696C9.14294 16.5696 13.5302 9.93092 15.2077 8.30375C16.8851 6.67658 18.8851 4.52877 18.24 4.46368Z"
    fill="#E5804D" />
  <path
    d="M23.8529 3.61748C23.8529 3.61748 21.3367 6.41619 21.2077 7.32737C20.8642 8.86528 25.1175 3.15155 23.8529 3.61748Z"
    fill="#E5804D" />
  <path
    d="M30.3049 5.37486C30.3049 5.37486 28.5628 6.87185 28.6274 7.71794C28.6919 8.56402 29.0145 7.9783 29.4661 7.3274C29.9177 6.67658 30.692 5.30977 30.3049 5.37486Z"
    fill="#E5804D" />
  <path
    d="M34.8856 4.46366C34.8856 4.46366 32.6275 7.84809 33.4017 7.52273C34.4434 6.96937 37.5045 4.01387 34.8856 4.46366Z"
    fill="#E5804D" />
  <path
    d="M41.5955 8.75931C41.5955 8.75931 39.0148 12.339 39.789 12.1437C40.5632 11.9485 42.4988 9.6054 42.6278 9.08476C42.7569 8.56404 41.8536 8.43386 41.5955 8.75931Z"
    fill="#E5804D" />
  <path
    d="M44.7569 12.5994C44.7569 12.5994 41.1439 16.1791 40.8858 17.0902C40.6277 18.0014 40.4342 19.1079 41.0794 18.457C41.7246 17.8062 45.7892 13.9011 45.7892 13.3153C45.7892 12.7294 45.015 12.4692 44.7569 12.5994Z"
    fill="#E5804D" />
  <path
    d="M37.5309 8.564C37.5309 8.564 35.7243 10.2563 35.7243 10.7118C35.7243 11.1673 35.7889 11.623 36.305 11.1023C36.8212 10.5817 37.5309 8.564 37.5309 8.564Z"
    fill="#E5804D" />
  <path
    d="M39.4664 28.285C39.4664 28.285 34.8856 36.2905 35.1437 37.0065C36.5363 39.9199 39.7454 28.2143 40.1763 27.8295C40.4342 27.1134 39.4664 28.285 39.4664 28.285Z"
    fill="#E5804D" />
  <path
    d="M46.5634 23.2734C46.5634 23.2734 42.9504 29.5216 43.0795 29.9771C44.5485 30.4612 47.2636 24.6538 47.4022 23.5989C47.4022 22.8829 47.1441 22.5575 46.5634 23.2734Z"
    fill="#E5804D" />
  <path
    d="M27.8531 34.403C27.8531 34.403 23.853 38.5034 24.1111 39.1543C24.3692 39.8051 24.4337 40.1956 25.0143 39.4797C25.3153 38.912 29.3297 34.3402 27.8531 34.403Z"
    fill="#E5804D" />
  <path
    d="M18.498 33.6871C18.498 33.6871 14.5624 37.1366 14.8205 38.2431C15.0786 39.3495 15.5301 38.7638 16.1754 38.0478C16.8205 37.3319 19.0787 33.4919 19.0787 33.4919L18.498 33.6871Z"
    fill="#E5804D" />
  <path
    d="M15.272 29.9772C15.272 29.9772 13.0784 33.1014 13.0139 33.8824C12.9494 34.6634 15.3366 31.7997 15.7237 31.0837C16.1108 30.3677 15.272 29.9772 15.272 29.9772Z"
    fill="#E5804D" />
  <path
    d="M11.5301 28.8057C11.5301 28.8057 9.91708 31.1487 9.98161 31.6695C10.0461 32.1902 12.3688 28.7406 12.5623 28.0898C12.7559 27.4389 12.0462 28.0246 11.5301 28.8057Z"
    fill="#E5804D" />
</svg>
  