<svg width="51" height="50" viewBox="0 0 51 50" fill="none" xmlns="http://www.w3.org/2000/svg">
  <path
    d="M26.1753 1.65458C-4.23525 -0.0230147 -10.2446 48.9641 24.1008 49.9163C60.1839 52.3216 58.0388 2.11458 26.1753 1.65458ZM25.928 17.2593C39.2771 17.7088 37.8228 32.1215 24.5559 31.1377C11.5182 30.4519 14.9706 16.565 25.928 17.2593Z"
    fill="#EE6F65" />
  <path
    d="M17.6791 17.7561C19.7141 11.7652 31.6695 11.5327 34.8543 16.7202C35.895 19.0512 34.8541 20.0872 33.0324 18.5331C31.2109 16.9789 30.9506 15.4249 26.787 15.6838C22.6234 15.943 17.6791 17.7561 17.6791 17.7561Z"
    fill="#F2938C" />
  <path
    d="M26.6103 0.63911C24.3237 0.64727 22.0957 1.03748 20.2813 1.90687C17.9264 3.03514 16.1161 2.65595 14.0358 4.15107C7.7404 6.04855 -1.63393 14.4078 0.244215 21.6066C0.59804 22.9629 1.26985 31.0607 1.80534 31.8303C11.5886 44.9083 10.1332 42.559 25.4284 43.4638C34.8542 45.7227 37.704 41.7517 45.263 36.3191C47.4852 34.722 48.1546 30.2781 49.4265 27.8404C52.4914 19.1486 49.9956 8.25334 40.8388 3.90149C38.4729 2.76768 35.6928 2.424 33.2925 1.6573C31.2424 1.00249 28.897 0.630429 26.6103 0.63911Z"
    fill="#501616" />
  <path
    d="M4.14732 37.0532C7.44949 47.7525 21.757 49.8873 31.7317 48.4495C35.8949 47.8026 42.4006 43.7877 44.4823 41.1975C46.5641 38.6073 45.263 37.9598 45.263 37.9598C40.5591 42.5618 33.9623 47.3782 24.705 44.8232C15.294 43.7769 10.4451 46.1542 4.14732 37.0532Z"
    fill="#F2938C" />
  <path
    d="M23.0571 1.19188C15.0185 6.45496 5.27356 12.506 0.239771 20.7891C-0.328164 28.5756 6.40402 17.9115 8.15239 16.3939C11.7257 12.8371 16.6878 9.46482 21.033 6.86974C21.7546 6.43882 31.3261 1.1806 30.7854 0.642465C29.2859 -0.850223 24.6796 0.65349 23.0571 1.19188Z"
    fill="#FFEDCF" />
  <path
    d="M37.9618 1.92445C29.5363 8.68439 20.7838 15.1573 13.673 23.354C13.4377 23.6169 0.380433 38.5643 6.86441 37.2734C15.1106 27.1206 26.9761 15.6416 37.9622 7.78583C41.2644 5.60483 44.3909 2.26735 37.9618 1.92445Z"
    fill="#FFEDCF" />
  <path
    d="M47.3462 9.25069C40.2064 15.9571 15.889 35.646 17.168 45.149C18.6606 45.6441 21.6802 41.7114 22.5052 40.7534C29.7987 32.2837 38.95 26.0332 46.7942 18.2253C49.6425 15.3903 50.6562 14.0063 49.5544 10.7159C49.1977 9.65105 48.7581 9.25069 47.3462 9.25069Z"
    fill="#FFEDCF" />
  <path
    d="M49.7382 24.2694C45.4349 28.6644 40.3834 32.2694 36.3058 36.9072C33.6088 39.9495 30.5799 45.5262 32.4415 44.5996C35.0552 44.0401 55.8978 25.3997 49.7382 24.2694Z"
    fill="#FFEDCF" />
  <path
    d="M46.0581 12.5475C41.2486 16.813 36.2021 20.9667 32.0733 25.9176C31.0868 27.0841 28.3933 29.7304 28.3933 31.5956C30.3426 30.3156 31.9503 28.2029 33.7297 26.6506C37.2698 23.1266 42.135 20.2365 44.954 16.0275C45.4885 15.2295 47.3127 12.9637 46.0581 12.5475Z"
    fill="#FFF5E5" />
  <path
    d="M37.4098 3.57289C34.8162 6.34654 21.7691 15.865 21.7691 18.5916C25.8669 14.3548 41.8184 3.06488 37.4098 3.57289Z"
    fill="#FFF5E5" />
  <path
    d="M23.7932 2.10765C21.6597 3.3558 19.6467 4.78702 17.5369 6.13708C16.2317 6.97228 14.7449 7.79193 13.4887 8.70126C-3.61142 21.0801 34.1261 -0.830934 22.5052 2.47399"
    fill="#FFF5E5" />
  <path
    d="M46.2422 29.2145C43.4621 32.2206 39.4752 34.7691 37.7778 38.5554C39.0757 38.5555 50.1726 28.2365 46.2422 29.2145Z"
    fill="#FFF5E5" />
  <path
    d="M40.1699 9.25066C35.9422 11.3363 14.4369 28.4319 17.1682 32.6942C18.7898 33.9046 21.1647 31.703 22.3211 30.6798C23.6224 29.3559 49.9117 7.19892 40.1699 9.25066Z"
    fill="#822424" />
  <path
    d="M44.7701 23.1705C41.6028 25.0971 38.4657 27.448 36.1217 30.3135C19.1386 46.5689 54 24.1271 44.7701 23.1705Z"
    fill="#822424" />
  <path
    d="M26.5533 6.32015C20.6616 9.61145 14.5557 13.4472 10.1766 18.7747C9.82764 19.1993 6.15909 23.6181 7.41645 24.4526C7.95551 26.9556 34.5917 3.357 26.5533 6.32015Z"
    fill="#822424" />
  <path
    d="M14.5928 4.67181C12.61 5.69191 10.4955 6.61617 8.70453 7.96875C1.6098 12.9118 15.7828 8.22544 14.5928 4.67181Z"
    fill="#822424" />
</svg>
  