<svg width="51" height="50" viewBox="0 0 51 50" fill="none" xmlns="http://www.w3.org/2000/svg">
  <path
    d="M26.2385 1.02872C-4.24559 -0.670591 -10.2695 48.9507 24.159 49.9152C60.3293 52.3517 58.179 1.49476 26.2385 1.02872ZM25.9906 16.8354C39.3719 17.2905 37.9141 31.8902 24.6152 30.8935C11.5458 30.1985 15.0068 16.1323 25.9906 16.8354Z"
    fill="#EE6F65" />
  <path
    d="M17.7219 17.3387C19.7618 11.2703 31.7462 11.0348 34.9387 16.2894C35.9818 18.6506 34.9384 19.7001 33.1124 18.1258C31.2864 16.5515 31.0255 14.9774 26.8518 15.2397C22.6782 15.5021 17.7219 17.3387 17.7219 17.3387Z"
    fill="#F2938C" />
  <path
    d="M26.6747 0.000153469C24.3825 0.00841919 22.1491 0.403679 20.3303 1.28433C17.9697 2.4272 16.1551 2.04301 14.0697 3.55749C7.75908 5.47953 -1.63791 13.947 0.244775 21.239C0.599456 22.6129 1.27289 30.8156 1.80967 31.5951C6.17696 42.1041 12.5373 43.0945 24.3305 46.0041C33.7788 48.2919 37.1379 43.0093 45.6625 39.1554C49.7443 37.2705 48.7349 29.7305 50.3285 23.7644C53.119 12.3246 44.7998 2.46615 33.3728 1.03205C31.3179 0.368241 28.9668 -0.00872779 26.6747 0.000153469ZM25.3751 11.3124C31.3849 11.1248 38.9633 15.4549 37.5469 21.7444C36.7645 25.5331 34.9385 30.0794 30.7649 31.0897C26.5912 32.1001 21.6346 31.8478 16.6784 27.8063C13.6572 22.8886 14.1166 11.476 25.3751 11.3124Z"
    fill="#7CB333" />
  <path
    d="M25.8892 0.674034C24.4031 0.699622 23.089 0.878745 22.1898 1.28807C14.5793 4.48752 7.40789 3.46591 2.45302 14.7516C0.977819 20.2103 2.45319 20.392 2.63766 24.3947C2.82212 28.3974 2.08435 27.1239 3.74445 30.3989C5.40456 33.6739 7.0644 39.8597 13.8892 40.4055C20.714 40.9513 26.9855 40.2238 30.6746 40.5877C34.3636 40.9516 37.3147 38.2225 40.8193 36.4031C48.6196 33.5997 51.4979 17.5318 47.4595 11.1128C42.4975 4.39695 33.7429 0.167538 25.8892 0.674034ZM25.2069 8.99595C39.0364 9.71709 44.3997 17.5218 35.8389 29.1257C33.9946 31.4908 30.859 32.764 28.0922 32.4002C25.3253 32.0363 22.9278 32.5821 20.161 32.0362C17.3942 31.4904 16.4719 29.1254 14.4429 26.5782C12.414 24.031 12.2292 20.5738 13.5203 18.0267C16.2743 11.9649 18.408 8.97502 25.2069 8.99595Z"
    fill="#8FC74B" />
  <path
    d="M25.9424 1.81256C25.3856 1.85494 25.5139 2.51647 26.0402 2.33735C26.1303 2.26296 26.2975 2.03248 26.2032 1.94375C26.1104 1.85037 26.1315 1.81256 25.9424 1.81256Z"
    fill="white" />
  <path
    d="M29.3665 2.67313C29.0055 2.81997 29.2944 3.32093 29.5406 2.92875C29.5648 2.86297 29.5159 2.80432 29.5176 2.7542C29.5249 2.67409 29.4126 2.67374 29.3665 2.67313ZM30.1775 2.85998C29.5624 3.05766 29.9405 3.89645 30.4204 3.31161C30.4727 3.20873 30.4043 3.10286 30.4167 3.02108C30.444 2.88944 30.2528 2.8664 30.1775 2.85998ZM40.7942 3.59246C40.6693 3.57716 40.6143 3.71425 40.5577 3.7788C40.4633 3.88229 40.5917 4.03618 40.7419 4.04084C41.1164 4.06528 41.1978 3.61058 40.7942 3.59246ZM26.9335 3.77397C26.4815 3.86498 26.4656 4.49994 26.9474 4.64758C27.0072 4.70781 27.106 4.71194 27.17 4.64766C27.5151 4.47206 27.3107 3.78584 26.9335 3.77397ZM17.7824 3.87606C16.9956 3.99222 17.2467 5.02657 17.9682 4.50865C18.0662 4.40277 18.0189 4.25205 18.0616 4.15797C18.1425 3.99889 17.8831 3.88353 17.7824 3.87606ZM18.941 3.91686C18.21 4.07628 18.527 5.05568 19.1616 4.48614C19.2414 4.37719 19.1819 4.24203 19.2117 4.14997C19.2701 3.99802 19.0303 3.92574 18.941 3.91686ZM38.4258 4.09835C38.2608 4.13809 38.3045 4.38659 38.4387 4.46028C38.7148 4.59235 38.767 4.1111 38.4258 4.09835ZM36.2069 4.09887C35.9782 4.07065 35.8824 4.30393 35.8204 4.45711C35.7081 4.63008 35.9566 4.82908 36.1717 4.78572C36.6555 4.7225 36.7606 4.11075 36.2069 4.09887ZM22.3425 6.77161C22.1808 6.83158 21.8611 6.8766 21.8791 7.07339C21.8275 7.37096 22.2044 7.6031 22.4974 7.55403C23.0191 7.48931 22.769 6.78374 22.3425 6.77161ZM39.6149 7.38758C39.3925 7.37808 39.3028 7.59493 39.3095 7.77212C39.2727 7.93629 39.4967 8.01929 39.656 7.93532C39.9412 7.81493 39.9813 7.35645 39.6149 7.38758ZM44.9277 7.52344C44.5536 7.61612 44.6199 8.17405 44.915 8.36926C45.451 8.73858 45.8208 7.64584 44.9277 7.52344ZM25.1091 7.54595C24.6116 7.55008 24.7295 8.20413 25.1166 8.32996C25.2662 8.37877 25.3933 8.26216 25.5058 8.26119C25.5929 8.2604 25.6673 8.19005 25.6665 8.09632C25.7523 7.80693 25.4059 7.53214 25.1091 7.54595ZM17.8566 7.64152C17.498 7.74951 17.6232 8.29189 17.927 8.439C18.468 8.7203 18.6957 7.673 17.8566 7.64152ZM23.4392 8.58136C23.1862 8.61205 23.1827 9.00229 23.4434 9.06622C23.4767 9.09972 23.5312 9.10183 23.5667 9.06622C23.7562 8.96897 23.6464 8.59306 23.4392 8.58136ZM42.4937 8.627C42.2194 8.6612 42.1465 9.02357 42.3821 9.18168C42.4071 9.23162 42.4678 9.25466 42.5209 9.22784C42.7954 9.19197 42.7781 8.62814 42.4937 8.627ZM42.7531 10.0012C42.1128 10.173 42.4445 11.0385 42.9758 10.49C43.0393 10.3888 42.978 10.2734 42.9987 10.1903C43.0404 10.0535 42.8302 10.0081 42.7531 10.0012ZM10.5891 10.2385C10.2385 10.2828 10.125 10.679 10.3835 10.9265C10.4066 10.9944 10.4806 11.0342 10.5527 11.0092C10.9229 11.0135 10.9812 10.2385 10.5891 10.2385ZM41.7792 10.7369C41.4978 10.7718 41.444 11.1699 41.7088 11.3017C41.7392 11.3483 41.8023 11.3642 41.8518 11.3313C42.1093 11.2641 42.0453 10.745 41.7792 10.7369ZM12.7674 10.7949C12.6128 10.8497 12.3862 10.7754 12.3473 10.97C12.2367 11.226 12.5254 11.5162 12.799 11.536C13.3121 11.5998 13.1899 10.8113 12.7674 10.7949ZM10.1342 11.8228C9.68642 11.8918 9.55799 12.3963 9.91538 12.6991C9.95027 12.7817 10.0449 12.8248 10.1326 12.7872C10.5826 12.7589 10.6035 11.8279 10.1342 11.8228ZM47.1723 13.1379C46.8926 13.1331 46.7899 13.3762 46.8167 13.6078C46.7817 13.7936 47.0598 13.874 47.2267 13.7619V13.7625C47.5174 13.6129 47.563 13.1099 47.1723 13.1379ZM47.6768 17.0285C46.988 17.1244 47.195 18.0191 47.8322 17.5886C47.9211 17.4985 47.8839 17.3645 47.924 17.2831C47.9988 17.1436 47.7688 17.0317 47.6768 17.0285ZM6.33124 19.3125C5.9012 19.3275 6.00943 19.8996 6.351 20.009C6.48424 20.0517 6.59649 19.9475 6.69641 19.9462C6.77405 19.9451 6.84005 19.8824 6.83892 19.7991C6.91541 19.5375 6.59693 19.2942 6.33124 19.3125ZM7.29807 20.8112C6.8828 20.8506 6.7306 21.2905 7.00179 21.6065C7.02198 21.6898 7.10539 21.7453 7.19395 21.7235C7.64549 21.7714 7.78695 20.8177 7.29807 20.8112ZM7.95165 22.962C7.74035 22.98 7.66097 23.2605 7.76264 23.4437C8.01679 23.8412 8.4783 23.164 7.95165 22.962ZM9.3195 24.0183C8.80649 24.0519 8.91656 24.7147 9.40762 24.4544C9.48307 24.3952 9.46794 24.291 9.5058 24.2336C9.57373 24.1285 9.40404 24.0149 9.3195 24.0183ZM43.508 24.4565C42.7142 24.399 42.7572 25.3584 43.5364 25.2169C43.6876 25.1672 43.723 24.9956 43.8145 24.9274C43.8854 24.8745 43.9049 24.7728 43.8487 24.6965C43.7372 24.5452 43.7745 24.4963 43.508 24.4565ZM9.63711 24.4978C9.4293 24.4718 9.33663 24.6993 9.24204 24.8066C9.1992 24.8407 9.18075 24.8938 9.18652 24.9462C8.97776 24.945 8.86402 25.2866 8.94095 25.4805C9.06658 25.8773 9.57792 25.5672 9.50842 25.2367C10.1464 25.3222 10.3469 24.5471 9.63711 24.4978ZM46.3222 27.5008C45.6199 27.5076 45.7265 28.3487 46.4018 28.1678C46.5314 28.1131 46.5499 27.96 46.6254 27.8933C46.7682 27.7357 46.5485 27.4924 46.3222 27.5008ZM39.8209 27.823C39.4684 27.875 39.4245 28.3745 39.6527 28.6242C40.1064 29.1088 40.6681 28.0816 39.8209 27.823ZM5.66865 27.8515C5.3242 27.8556 5.4062 28.3079 5.67451 28.3944C5.7782 28.428 5.86623 28.3468 5.94413 28.346C6.10901 28.3186 6.10062 28.0774 5.96231 27.9615H5.96179C5.85461 27.8879 5.79752 27.85 5.66865 27.8515ZM10.5047 29.0173C10 29.0144 10.113 29.6558 10.5752 29.63C10.6997 29.6191 10.7563 29.4944 10.8383 29.4587C10.9019 29.4309 10.935 29.3564 10.9056 29.288C10.8864 29.1123 10.6942 29.0113 10.5047 29.0173ZM8.25484 31.5471C7.98103 31.5587 7.82568 31.9922 8.01137 32.2625C8.1015 32.3938 8.27408 32.3786 8.36482 32.4472C8.4352 32.5003 8.5374 32.4907 8.59388 32.415C8.9121 32.1873 8.63269 31.5481 8.25484 31.5471ZM40.3548 33.4863C40.0034 33.5451 40.1354 33.8868 40.4424 33.8434C40.6781 33.7986 40.5494 33.4891 40.3548 33.4863ZM33.7525 33.5669C33.6559 33.571 33.6073 33.6661 33.5427 33.691C33.4145 33.7652 33.4952 33.9634 33.6457 34.0169C34.0926 34.1874 34.2306 33.6046 33.7525 33.5669ZM32.9063 34.0078C32.7814 34.0426 32.4792 34.1771 32.5304 34.3165C32.5719 34.4666 32.5282 34.4934 32.7221 34.6038V34.6033C33.3355 34.8912 33.5618 34.1032 32.9063 34.0078ZM38.854 35.549C38.5573 35.5789 38.477 35.9785 38.7376 36.1434C38.7654 36.196 38.8307 36.2189 38.8865 36.189C39.1733 36.1442 39.1487 35.561 38.854 35.549ZM29.2789 35.9276C28.8635 35.9889 29.0045 36.5453 29.382 36.2627C29.4333 36.2058 29.4073 36.1262 29.4295 36.0759C29.4716 35.9905 29.3324 35.9311 29.2789 35.9276ZM28.8603 36.2294C28.6149 36.2114 28.4578 36.5167 28.5256 36.7541C28.7176 37.2661 29.356 36.6951 28.9863 36.3246C28.9719 36.267 28.92 36.2267 28.8603 36.2294ZM26.1359 36.3615C25.6993 36.517 26.007 37.1229 26.3264 36.6745C26.359 36.5983 26.3049 36.5253 26.3098 36.4661C26.3236 36.3721 26.1901 36.3649 26.1359 36.3615ZM35.6245 37.5741C35.3487 37.5948 35.2561 37.9482 35.4787 38.1224C35.5001 38.1741 35.5597 38.202 35.6148 38.1787C35.8949 38.1625 35.9135 37.5877 35.6245 37.5741ZM17.8887 37.6519C17.6341 37.6261 17.5277 37.8755 17.4936 38.0655C17.4541 38.1303 17.471 38.2174 17.54 38.2598C17.9736 38.6769 18.6714 37.6844 17.8887 37.6519ZM22.4049 37.7921C22.1976 37.7812 22.1105 37.9823 22.122 38.1492C22.0912 38.2996 22.2971 38.3722 22.4412 38.2925V38.292C22.6936 38.1804 22.7329 37.7677 22.4049 37.7921ZM18.7792 37.8517C18.5457 37.8695 18.4561 38.1114 18.5769 38.2974C18.582 38.3482 18.6265 38.3873 18.6804 38.3818C18.9624 38.4517 19.107 37.8381 18.7792 37.8517ZM14.8812 38.617C14.5799 38.6255 14.4476 38.9563 14.6276 39.191C14.6379 39.2541 14.6961 39.3003 14.7632 39.2893C15.1014 39.3519 15.2565 38.6321 14.8812 38.617ZM29.4456 38.9649C29.2156 39.0154 29.2456 39.3571 29.4232 39.4815C29.7787 39.7134 29.9597 39.0341 29.4456 38.9649Z"
    fill="white" />
  <path
    d="M28.1135 1.69795C27.8275 1.70349 27.6846 2.06982 27.7953 2.33326C28.0692 2.87449 28.7235 2.17032 28.2539 1.78931C28.2316 1.73127 28.1747 1.69399 28.1135 1.69795ZM28.6644 2.24137C28.295 2.25342 28.3681 2.73485 28.7242 2.57112C28.7841 2.53199 28.7799 2.45391 28.8117 2.41373C28.8668 2.33125 28.747 2.2339 28.6644 2.24137ZM23.9634 3.82769C23.7932 3.87614 23.5666 3.76086 23.5043 3.97322C23.3277 4.28662 23.7069 4.69137 24.0516 4.68856C24.2275 4.87542 24.4241 4.66736 24.3543 4.45923C24.431 4.22559 24.2658 3.81723 23.9634 3.82769ZM20.9602 3.98553C20.596 4.07083 20.765 4.5607 21.0771 4.27281C21.1174 4.21776 21.0876 4.1497 21.1022 4.10309C21.1313 4.02501 21.0067 3.98676 20.9602 3.98553ZM15.429 4.20202C15.1005 4.24352 15.0093 4.6897 15.1903 4.95763C15.5851 5.50809 16.2569 4.50354 15.429 4.20202ZM10.4337 5.12347C9.9584 5.16207 10.0695 5.78297 10.5219 5.52304C10.5894 5.4658 10.5722 5.37056 10.6051 5.31631C10.665 5.2194 10.5065 5.12233 10.4337 5.12347ZM38.4782 5.32484C38.29 5.29908 38.2084 5.49499 38.1445 5.6122C38.0391 5.76257 38.2327 5.94169 38.4284 5.92261C38.8759 5.89825 38.9781 5.34471 38.4782 5.32484ZM33.7846 5.53377C33.2304 5.60614 33.6184 6.41152 34.1091 6.14156C34.1818 6.14385 34.2461 6.08801 34.2485 6.0101C34.3322 5.76521 34.0361 5.52322 33.7846 5.53377ZM35.9699 5.68519C35.6221 5.70093 35.4882 6.00457 35.6191 6.30116C35.6169 6.3767 35.6751 6.44309 35.7553 6.44511C36.1717 6.60374 36.4851 5.68431 35.9699 5.68519ZM18.7989 6.50842C18.5967 6.52759 18.3552 6.83105 18.3494 7.05888C18.2938 7.58516 18.9912 7.53987 19.1694 7.14646C19.2384 6.99416 19.1318 6.84609 19.1443 6.72703C19.1751 6.53771 18.9089 6.51695 18.7989 6.50842ZM36.6757 6.80062C36.4157 6.82524 36.3196 7.16976 36.4461 7.39513C36.7461 7.87833 37.3349 7.0609 36.6757 6.80062ZM30.2795 6.90852C30.0461 6.91661 29.9511 7.13987 30.0382 7.33491C30.0359 7.38758 30.0757 7.43454 30.1316 7.43691C30.4273 7.55333 30.6506 6.89823 30.2795 6.90852ZM12.9773 7.25383C12.63 7.2533 12.7092 7.69139 13.0226 7.68611C13.3627 7.59027 13.342 7.26957 12.9773 7.25383ZM38.7216 7.49284C38.6098 7.52273 38.4615 7.44386 38.4178 7.58306C38.3872 7.70898 38.3449 7.71082 38.4412 7.87033H38.4407C38.8539 8.41692 39.2843 7.65156 38.7216 7.49284ZM11.5843 7.56256C11.4446 7.54656 11.3427 7.78275 11.4321 7.86488C11.6446 8.0527 11.9459 7.5528 11.5843 7.56256ZM33.5951 7.79884C33.524 7.80025 33.4575 7.84615 33.436 7.92239C33.2659 8.18575 33.5321 8.56228 33.8322 8.63553C34.46 8.79302 34.4589 7.65885 33.5951 7.79884ZM30.0408 8.08137C29.8787 8.08216 29.7092 8.38123 29.7365 8.55718C29.7594 8.96264 30.2818 8.84146 30.3682 8.52121C30.4016 8.39731 30.3029 8.29821 30.2977 8.2065C30.297 8.07108 30.1287 8.07759 30.0408 8.08137ZM14.2303 8.19841C14.0298 8.22136 13.9727 8.48129 14.1396 8.60167C14.1567 8.63887 14.2004 8.65768 14.2399 8.63931C14.4438 8.61961 14.4417 8.20043 14.2303 8.19841ZM31.7392 8.439C31.6718 8.46714 31.5525 8.52324 31.5726 8.60062C31.5987 8.66859 31.5794 8.68319 31.6746 8.72575C31.9619 8.83329 32.0454 8.45852 31.7392 8.439ZM12.3131 8.48735C11.8477 8.64396 12.1627 9.29063 12.5101 8.82784C12.5478 8.74773 12.4922 8.66841 12.4994 8.60554C12.5183 8.50406 12.3704 8.49114 12.3131 8.48735ZM34.4034 8.63069C34.2133 8.62963 34.1252 8.82995 34.1931 8.98621C34.1899 9.03097 34.2223 9.07265 34.2699 9.07643C34.5238 9.1859 34.7296 8.6204 34.4034 8.63069ZM5.35305 8.97336C4.90955 9.0656 4.85937 9.661 5.3034 9.85613C5.35664 9.92392 5.45613 9.93976 5.52817 9.88251C5.91021 9.7449 5.75687 8.97389 5.35305 8.97336ZM45.3762 9.50985C45.0673 9.5765 45.1071 10.0359 45.3442 10.2036C45.7929 10.5191 46.0915 9.62152 45.3762 9.50985ZM6.90729 9.578C6.7522 9.57879 6.67955 9.76512 6.77117 9.88251C6.77633 9.91637 6.80675 9.94142 6.84268 9.93623C7.02645 9.97431 7.1144 9.58072 6.90729 9.578ZM39.1893 9.578C39.1018 9.60693 38.9337 9.68316 38.9597 9.78147C38.9902 9.87275 38.9637 9.88998 39.0873 9.95171C39.4603 10.1126 39.5921 9.62108 39.1893 9.578ZM29.5758 9.71921C29.4119 9.7798 29.3442 9.7594 29.2736 9.98715H29.2731C29.1826 11.146 30.4999 10.1609 29.5758 9.71921ZM15.1027 9.74128C14.8934 9.7368 14.8544 10.1364 15.1139 10.0506C15.3013 9.99814 15.3285 9.72493 15.1027 9.74128ZM34.035 10.1902C33.7876 10.1626 33.6857 10.412 33.6282 10.5833C33.518 10.7698 33.7872 10.9679 34.011 10.913C34.5025 10.8283 34.6061 10.1954 34.035 10.1902ZM11.6051 10.2686C11.4383 10.2332 11.2986 10.4319 11.32 10.6022C11.345 10.8769 11.697 10.7825 11.7482 10.5629C11.7489 10.4732 11.6964 10.2691 11.6051 10.2686ZM39.9181 11.2814C39.7885 11.2836 39.7208 11.4092 39.6335 11.4404C39.5657 11.4646 39.5266 11.5394 39.5524 11.6122C39.6034 11.7567 39.5626 11.786 39.7606 11.8807C40.3654 12.1157 40.5583 11.3576 39.9181 11.2814ZM13.5 12.0606C13.295 12.0895 13.2352 12.3675 13.3472 12.538C13.6203 12.8992 14.0117 12.2273 13.5 12.0606ZM6.10753 12.7845C5.72627 12.9233 6.03208 13.4691 6.2843 13.0406C6.30642 12.9719 6.2537 12.9135 6.25335 12.8618C6.25702 12.7839 6.15622 12.7852 6.10753 12.7845ZM12.0456 13.4719C11.6524 13.4653 11.7401 13.9619 12.0744 14.0036C12.1806 14.0153 12.2491 13.9201 12.3238 13.9037C12.3817 13.8911 12.4214 13.8344 12.4081 13.7721C12.4295 13.5987 12.2137 13.4663 12.0456 13.4719ZM9.58746 13.5433C9.53544 13.5444 9.49251 13.565 9.39792 13.6588V13.6593C8.96281 14.1608 9.61832 14.6108 9.91372 14.0191C9.95639 13.8933 9.86066 13.7845 9.86136 13.6894C9.87062 13.543 9.67689 13.5441 9.58746 13.5433ZM4.23988 13.786C3.94876 13.8068 3.83869 14.1519 4.04501 14.3585C4.06171 14.4167 4.12238 14.453 4.18428 14.4347C4.49918 14.4536 4.57559 13.7926 4.23988 13.786ZM6.72894 13.9734C6.35861 14.0768 6.53066 14.64 6.84906 14.7526C7.39468 14.9782 7.53945 13.9535 6.72894 13.9734ZM10.8843 14.1201C10.6697 14.1024 10.5878 14.3207 10.5421 14.4702C10.4563 14.6411 10.6823 14.7955 10.8811 14.7457C11.3053 14.6609 11.3785 14.1106 10.8843 14.1201ZM38.5155 14.4858C38.4368 14.4776 38.4015 14.5652 38.3617 14.6013C38.2972 14.6717 38.3686 14.7738 38.4743 14.786C38.7382 14.821 38.7959 14.4987 38.5155 14.4858ZM46.6613 14.4938C46.5363 14.517 46.5161 14.6917 46.5956 14.7859C46.8 14.9759 46.9449 14.5556 46.6613 14.4938ZM7.97351 15.3063C7.66158 15.3804 7.67374 15.836 7.90305 16.0319C8.35757 16.4074 8.73638 15.4527 7.97351 15.3063ZM42.3895 15.8041C42.2074 15.7955 42.1343 15.9728 42.1392 16.1178C42.1207 16.1637 42.1411 16.2177 42.1899 16.2375C42.4786 16.4603 42.8492 15.7892 42.3895 15.8041ZM2.93079 15.8359C2.64333 15.9089 2.77648 16.1891 3.0301 16.1172C3.21116 16.0559 3.08631 15.83 2.93079 15.8359ZM7.59339 16.0329C7.41933 16.0546 7.39275 16.319 7.55711 16.3911C7.57678 16.4202 7.61682 16.4296 7.64786 16.4083C7.81099 16.3634 7.76378 16.0304 7.59339 16.0329ZM44.2588 16.353C43.8312 16.453 44.067 17.1152 44.5129 16.9952C44.579 17.0141 44.6504 16.9776 44.6704 16.9066C44.8212 16.671 44.5249 16.3375 44.2588 16.353ZM40.3874 16.5098C39.7223 16.7004 40.0833 17.5959 40.6283 17.0157C40.6929 16.9093 40.6272 16.7901 40.6469 16.7031C40.6881 16.5595 40.4682 16.5154 40.3874 16.5098ZM14.2453 17.2251C13.4433 17.168 13.4889 18.1379 14.2758 17.993C14.4284 17.9425 14.4633 17.7694 14.5555 17.7003C14.627 17.647 14.6466 17.5436 14.5897 17.4667C14.4767 17.3142 14.5145 17.2647 14.2453 17.2251ZM42.6335 17.384C42.2882 17.3985 42.3613 17.8313 42.6907 17.7073C42.7489 17.6483 42.8428 17.5313 42.7863 17.4619C42.7292 17.4072 42.739 17.383 42.6335 17.384ZM48.0303 17.8657C47.8565 17.8676 47.7797 18.0905 47.8995 18.2126C47.9087 18.2488 47.9448 18.2727 47.9832 18.2631C48.1777 18.2822 48.2392 17.8734 48.0303 17.8657ZM4.66651 18.1831C4.39864 18.1885 4.28001 18.6176 4.47969 18.8544C4.57288 18.9651 4.72841 18.9365 4.81662 18.9903C4.88499 19.032 4.97669 19.0132 5.0211 18.9398C5.27936 18.7101 4.99794 18.1872 4.66651 18.1831ZM11.2132 18.7362C11.0198 18.7609 10.9714 19.025 11.0808 19.1792C11.345 19.4958 11.6719 18.8849 11.2132 18.7362ZM11.8988 19.4252C11.75 19.4714 11.3901 19.6028 11.4444 19.7732C11.4209 20.0755 11.8196 20.271 12.1076 20.1942C12.6123 20.0803 12.3189 19.4255 11.8988 19.4252ZM45.043 19.9091C44.8485 19.9305 44.7975 20.2045 44.9614 20.3118C44.9788 20.3485 45.0227 20.3661 45.0618 20.3473C45.2657 20.3255 45.2564 19.9018 45.043 19.9091ZM46.6618 20.6657C46.5071 20.718 46.2724 20.6636 46.2395 20.8541C46.1429 21.1067 46.4347 21.3751 46.7003 21.3826C47.1876 21.4195 47.0579 20.7002 46.6618 20.6657ZM8.11182 21.1431C7.75015 21.1842 7.62347 21.5579 7.85077 21.8364C7.86703 21.91 7.93916 21.9602 8.01732 21.9427C8.41947 21.994 8.55393 21.1359 8.11182 21.1431ZM45.8887 21.4245C45.5784 21.459 45.6743 21.8789 45.9598 21.6829C46.0254 21.5781 46.0364 21.4323 45.8887 21.4245ZM42.4237 21.6844C42.2515 21.7365 42.1559 21.9018 42.2406 22.114C41.9747 22.1499 41.8881 22.4367 42.0452 22.6387C42.0556 22.696 42.1096 22.7369 42.17 22.7257C42.3325 22.75 42.4642 22.5572 42.4711 22.3949C42.9114 22.5938 43.1141 21.7577 42.4237 21.6844ZM44.4653 21.7494C44.0985 21.7364 44.1418 22.1942 44.4985 22.1028C44.5677 22.0757 44.5794 21.9946 44.6202 21.9604C44.6904 21.8688 44.5942 21.7529 44.4653 21.7494ZM40.1493 21.9282C40.07 21.9359 40.0129 21.957 39.9613 22.0174C39.8306 22.1711 40.0597 22.3088 40.2005 22.2236C40.2551 22.1906 40.2538 22.1209 40.2833 22.0861C40.3337 22.0109 40.2306 21.9212 40.1493 21.9282ZM12.8625 22.5656C12.6289 22.5498 12.524 22.7756 12.5411 22.9663C12.5202 23.024 12.5483 23.0905 12.6094 23.1129C12.9591 23.3701 13.4055 22.5624 12.8625 22.5656ZM2.48492 22.752C2.16346 22.818 2.17386 23.2942 2.5143 23.377C2.55844 23.4189 2.62952 23.4194 2.67393 23.3717C2.91662 23.2382 2.75471 22.7521 2.48492 22.752ZM43.3682 22.8272C42.9512 22.8066 43.0287 23.3391 43.3778 23.4012C43.4914 23.4202 43.5708 23.3218 43.6522 23.3089C43.7152 23.2985 43.7617 23.2397 43.751 23.1719C43.784 22.9833 43.5522 22.826 43.3682 22.8272ZM46.1263 23.1628C45.9457 23.1731 45.7403 23.482 45.7548 23.6837C45.7466 24.1516 46.3576 24.0572 46.4841 23.6966C46.5331 23.5571 46.4278 23.4351 46.4296 23.3293C46.4413 23.1659 46.2261 23.1648 46.1263 23.1628ZM6.65953 23.8443C6.35844 23.8569 6.2308 24.1812 6.40171 24.4183C6.41098 24.4822 6.46877 24.5306 6.53669 24.5208C6.88324 24.5934 7.05049 23.8496 6.65953 23.8443ZM4.78716 24.1912C4.52165 24.2326 4.47829 24.6058 4.7285 24.7292C4.75778 24.7733 4.81775 24.7877 4.86461 24.7561C5.11098 24.6905 5.04384 24.1893 4.78716 24.1912ZM8.8315 25.5213C8.47122 25.5572 8.33974 25.9281 8.56249 26.2082C8.57762 26.2818 8.64878 26.333 8.72685 26.3167C9.12726 26.3734 9.27255 25.52 8.8315 25.5213ZM41.0073 25.5949C40.8423 25.5837 40.7386 25.7867 40.7857 25.9456C40.8512 26.1929 41.1585 26.0512 41.1712 25.8425C41.1764 25.7618 41.1027 25.7131 41.0879 25.6572C41.0782 25.6205 41.045 25.5947 41.0073 25.5949ZM5.06263 25.922C4.89373 25.9328 4.82484 26.1542 4.90247 26.3027C5.11141 26.6285 5.46985 26.0818 5.06263 25.922ZM4.1 27.0551C3.68019 27.0812 3.79734 27.4863 4.15342 27.4922C4.44646 27.4825 4.33701 27.0741 4.1 27.0551ZM15.1049 27.5545C14.9686 27.591 14.7896 27.4969 14.7375 27.6657C14.6082 27.8846 14.8367 28.1806 15.0819 28.2301C15.5568 28.3527 15.5107 27.5666 15.1049 27.5545ZM41.453 28.831C41.0759 28.9173 41.1163 29.4744 41.4034 29.6886C41.934 30.0949 42.3606 28.9892 41.453 28.831ZM17.1737 29.4126C17.0188 29.4161 16.951 29.5812 17.0104 29.7069C17.0081 29.7435 17.036 29.7763 17.0749 29.7783C17.2839 29.8624 17.4389 29.3964 17.1737 29.4126ZM38.4012 29.5221C37.9435 29.5954 38.2152 30.2927 38.6597 30.1316C38.7256 30.145 38.7928 30.1041 38.8071 30.0334C38.9302 29.8037 38.6505 29.5176 38.4012 29.5221ZM46.1685 29.8346C45.9091 29.8666 45.8364 30.2175 45.9779 30.4297C46.3054 30.8691 46.8075 30.059 46.1685 29.8346ZM44.7296 30.1134C44.1899 30.2624 44.494 31.009 44.9272 30.514C44.9758 30.4261 44.9191 30.3323 44.9325 30.2616C44.9609 30.1478 44.7948 30.1218 44.7296 30.1134ZM42.9881 30.1198C42.8619 30.1772 42.8 30.2597 42.8407 30.4366H42.8412C43.1841 31.2032 43.7446 30.1783 42.9881 30.1198ZM3.04339 30.2541C2.50721 30.343 2.83951 31.1615 3.37385 30.9398C3.45122 30.9503 3.52536 30.8973 3.5362 30.8142C3.65772 30.5448 3.32752 30.2401 3.04339 30.2541ZM40.4376 31.0118C40.2136 31.0139 40.2684 31.3058 40.4451 31.3566C40.7859 31.378 40.7454 31.0216 40.4376 31.0118ZM45.1819 31.16C45.0686 31.1622 45.0094 31.2717 44.9331 31.2991C44.7803 31.3824 44.8693 31.6165 45.0441 31.6836C45.5721 31.8891 45.7409 31.2262 45.1819 31.16ZM41.0953 31.6164C40.6025 31.6874 40.9276 32.4179 41.3825 32.2055C41.45 32.2128 41.5139 32.1646 41.5213 32.0922C41.6186 31.8605 41.3381 31.6078 41.0953 31.6164ZM32.4488 31.7227C32.1119 31.6983 31.8982 32.1176 31.9912 32.4429C32.2261 33.1229 33.1387 32.405 32.6222 31.8533C32.6023 31.7745 32.5304 31.7192 32.4488 31.7227ZM18.7018 32.437C18.3531 32.4259 18.3668 33.0491 18.7338 32.8607V32.8602C18.932 32.7612 18.9664 32.421 18.7018 32.437ZM8.30075 32.473C8.06549 32.4826 8.05937 32.8463 8.2607 32.974C8.35941 33.0101 8.59239 33.0275 8.63235 32.9305C9.24502 33.1457 8.99131 32.3437 8.63287 32.6818C8.56984 32.5517 8.44237 32.475 8.30075 32.473ZM42.4397 32.5229C42.2857 32.5196 42.2114 32.6813 42.2646 32.8086C42.2615 32.8449 42.2869 32.8791 42.3255 32.8828C42.5299 32.9747 42.7043 32.5191 42.4397 32.5229ZM12.9121 32.7366C12.713 32.7088 12.6095 32.9287 12.4978 33.0083C12.2974 33.1471 12.499 33.4891 12.7551 33.5255C13.4745 33.6682 13.6703 32.8253 12.9121 32.7366ZM10.438 32.9681C10.2595 32.9523 10.1627 33.1443 10.0514 33.2002C9.84073 33.3184 10.008 33.6756 10.2575 33.7356C10.9959 33.9535 11.2147 33.0645 10.438 32.9681ZM26.2491 33.1217C25.8642 33.1911 25.8195 33.7251 26.2 33.8884C26.2458 33.9477 26.3324 33.9625 26.3954 33.9132C26.7283 33.7962 26.6002 33.1246 26.2491 33.1217ZM23.8834 33.1571C23.7018 33.2104 23.7529 33.4837 23.9042 33.5669C24.2171 33.7165 24.2762 33.1663 23.8834 33.1571ZM39.768 33.2157C39.4717 33.1838 39.2689 33.5454 39.3409 33.8359C39.5367 34.4512 40.3525 33.8262 39.9169 33.336C39.902 33.2659 39.8402 33.215 39.768 33.2157ZM12.8987 33.5894C12.6868 33.6014 12.6011 33.8443 12.7408 34.0018C12.7511 34.0453 12.7939 34.0743 12.84 34.0635C13.0745 34.0904 13.1528 33.5954 12.8987 33.5894ZM23.9234 33.6984C23.6138 33.676 23.5105 33.9543 23.4546 34.1802C23.343 34.4024 23.6655 34.6047 23.9164 34.5238C24.4416 34.3968 24.5508 33.6958 23.9234 33.6984ZM37.6997 33.8037C37.2626 33.8841 37.2178 34.4841 37.6619 34.6612C37.7154 34.7255 37.8116 34.7381 37.8797 34.6805C38.2408 34.5371 38.0821 33.8161 37.6997 33.8037ZM14.7386 34.3224C14.2268 34.4574 14.6881 35.4055 15.1027 35.1005C15.1971 35.1994 15.3466 35.1501 15.4348 35.1897C15.4755 35.2075 15.5201 35.2024 15.5571 35.1816C15.6127 35.2956 15.7333 35.3934 15.8651 35.405C16.3133 35.4209 16.0346 34.7437 15.6879 34.9314C15.6826 34.6893 15.3965 34.3814 15.138 34.482C15.0073 34.392 14.8676 34.3632 14.7386 34.3224ZM20.6548 34.3386C20.3533 34.3116 20.1518 34.6863 20.2272 34.9808C20.4333 35.6136 21.2702 34.9637 20.8171 34.4616C20.8005 34.3868 20.7327 34.3332 20.6548 34.3386ZM38.9485 34.4594C38.8242 34.4499 38.7773 34.5845 38.7323 34.6581C38.6575 34.7629 38.7916 34.8899 38.9293 34.8778C39.2591 34.8618 39.3103 34.4552 38.9485 34.4594ZM12.7071 34.5818C12.5052 34.611 12.4585 34.8888 12.5768 35.0479C12.8552 35.3732 13.1933 34.7326 12.7071 34.5818ZM35.6709 34.7907C35.4138 34.7947 35.3042 35.0375 35.3965 35.2541C35.3934 35.3118 35.4354 35.3648 35.4968 35.3685C35.8192 35.5024 36.079 34.7877 35.6709 34.7907ZM10.1022 35.0238C10.0115 35.0158 9.96636 35.1163 9.9132 35.1494C9.81669 35.2233 9.90271 35.375 10.0306 35.4023C10.3818 35.4873 10.4743 35.0511 10.1022 35.0238ZM16.6158 35.027C16.4972 35.034 16.3983 35.0739 16.3248 35.1682C16.143 35.3989 16.4844 35.5867 16.6847 35.455C16.7622 35.404 16.7556 35.3021 16.7967 35.2498C16.8694 35.147 16.7132 35.0216 16.6158 35.027ZM11.8742 35.0936C11.6779 35.0864 11.5935 35.2786 11.619 35.4394C11.6047 35.488 11.6308 35.5416 11.6825 35.557C11.9753 35.7496 12.3099 35.0786 11.8742 35.0936ZM8.67615 35.245C8.51021 35.2578 8.45452 35.4842 8.5854 35.586C8.59807 35.6187 8.63479 35.6367 8.66976 35.6231C8.84898 35.618 8.86516 35.2427 8.67615 35.245ZM20.0093 35.3159C19.9483 35.3173 19.8931 35.3444 19.776 35.4512H19.7755C19.5379 35.6687 19.4808 36.2158 19.8577 36.2492C19.6449 36.4325 19.7224 36.6921 19.9176 36.835C19.9496 36.8933 20.0231 36.9183 20.0852 36.8839C20.3635 36.8265 20.3781 36.342 20.1471 36.196C20.4606 36.0711 20.4354 35.761 20.3558 35.514C20.3754 35.3269 20.1202 35.3206 20.0093 35.3159ZM32.8011 35.6945C32.0268 35.7456 32.1818 36.737 32.9266 36.3428C33.038 36.2533 33.0137 36.0986 33.0691 36.0125C33.1704 35.8585 32.9184 35.6954 32.8011 35.6945ZM36.2918 35.709C36.1835 35.7298 35.9277 35.8881 35.9821 36.0001C36.0292 36.1218 35.9949 36.1473 36.1658 36.223C36.6803 36.4059 36.834 35.7676 36.2918 35.709ZM29.7771 35.8432C29.425 35.8802 29.3253 36.358 29.5193 36.6423C29.9299 37.2163 30.6441 36.1799 29.7771 35.8432ZM25.8913 36.0124C25.8207 36.0364 25.7089 36.0259 25.6996 36.1123C25.7007 36.1864 25.6779 36.1936 25.7541 36.2675H25.7546C26.0121 36.4879 26.202 36.0977 25.8913 36.0124ZM34.2603 36.1553C33.6007 36.1659 33.7525 36.9768 34.3703 36.8803C34.517 36.8464 34.5644 36.6875 34.6564 36.6311C34.7278 36.5873 34.7547 36.4928 34.7082 36.4163C34.6487 36.2367 34.4928 36.1387 34.2603 36.1553ZM30.5502 36.2552C30.2246 36.2727 30.0873 36.6974 30.2341 36.985C30.5634 37.5961 31.3743 36.6341 30.5502 36.2552ZM34.9159 36.696C34.7333 36.7058 34.6703 36.9596 34.8182 37.0686C34.8327 37.104 34.873 37.1229 34.9106 37.1073C35.1032 37.0972 35.1157 36.701 34.9159 36.696ZM26.8929 37.2331C26.6524 37.2226 26.5503 37.4577 26.5726 37.653C26.5526 37.713 26.5831 37.7804 26.6468 37.8017C27.0129 38.0583 27.4512 37.2157 26.8929 37.2331ZM32.9543 37.4511C32.6052 37.517 32.6694 38.0587 33.0473 38.0858C33.0987 38.1214 33.1707 38.1109 33.2085 38.0558C33.4243 37.8869 33.2171 37.4552 32.9543 37.4511ZM14.1598 37.4822C13.7169 37.4881 13.8276 38.0443 14.2234 38.0401C14.3366 38.036 14.3941 37.9258 14.47 37.8972C14.5289 37.8751 14.5618 37.8087 14.5384 37.7458C14.5318 37.5765 14.332 37.4738 14.1598 37.4822ZM16.831 37.7099C16.6679 37.6932 16.6028 37.8621 16.5561 37.9688C16.4763 38.1007 16.6472 38.24 16.8107 38.2131C17.1748 38.1693 17.2437 37.7115 16.831 37.7099ZM32.1417 37.8748C31.8449 37.8799 31.7724 38.3537 32.0141 38.5686C32.122 38.6645 32.2711 38.6134 32.366 38.654C32.5748 38.7166 32.6987 38.4039 32.5907 38.1975C32.4916 38.0174 32.3478 37.8823 32.1417 37.8748ZM32.5577 38.9069C32.1924 38.9756 32.2371 39.5346 32.6304 39.5877C32.6828 39.6288 32.7603 39.6222 32.8038 39.5658C33.0474 39.3977 32.8431 38.9118 32.5577 38.9069ZM27.8422 38.9902C27.5714 38.9942 27.4167 39.4215 27.5998 39.6861C27.6878 39.8135 27.8558 39.7986 27.9441 39.865C28.0127 39.9164 28.1122 39.9058 28.1668 39.8322C28.4734 39.6109 28.2058 39.0002 27.8422 38.9902ZM35.5209 39.0814C35.227 39.1334 35.2106 39.5692 35.5065 39.6705C35.5437 39.714 35.6101 39.7219 35.6565 39.6818C35.9047 39.5802 35.7869 39.0784 35.5209 39.0814ZM21.9741 39.0986C21.7722 39.0907 21.6869 39.2878 21.7061 39.452C21.6895 39.5024 21.7154 39.5588 21.7686 39.5766C22.0764 39.7908 22.4419 39.0828 21.9741 39.0986ZM22.4877 39.5142C22.3787 39.5062 22.3358 39.6132 22.3233 39.6947C22.3455 40.044 22.9207 39.5604 22.4877 39.5142ZM25.0232 41.404C24.5078 41.3943 24.625 42.0511 25.0536 42.123C25.1961 42.1458 25.2951 42.022 25.3969 42.0049C25.4759 41.9917 25.5332 41.9167 25.5192 41.8319C25.4913 41.6634 25.5418 41.6397 25.343 41.4968V41.4973C25.2169 41.4367 25.1385 41.4003 25.0232 41.404ZM32.4029 42.3577C32.2987 42.3513 32.2501 42.4678 32.1915 42.5092C32.0867 42.5971 32.191 42.7632 32.3362 42.7873C32.7313 42.865 32.8204 42.3769 32.4029 42.3577ZM27.8193 42.8926C27.4995 42.8983 27.5827 43.3089 27.8808 43.2589C27.9572 43.2189 28.0976 43.1129 28.0553 43.0285C28.0288 42.9328 27.9353 42.883 27.8193 42.8926Z"
    fill="white" />
  <path
    d="M21.6945 46.553C21.6945 46.553 12.0298 42.2758 10.58 43.2479C9.13034 44.22 13.2862 47.1363 17.2487 48.0111C21.2112 48.886 24.2072 47.9139 21.6945 46.553Z"
    fill="#F2938C" />
  <path
    d="M42.1836 41.6925C42.1836 41.6925 38.4144 43.8311 38.3177 45.0948C38.2211 46.3585 42.6668 43.0534 43.73 41.9841C44.7931 40.9148 43.6334 40.9148 42.1836 41.6925Z"
    fill="#F2938C" />
</svg>
  