<svg width="51" height="50" viewBox="0 0 51 50" fill="none" xmlns="http://www.w3.org/2000/svg">
  <path
    d="M26.2785 1.02872C-4.25201 -0.670591 -10.2851 48.9507 24.1958 49.9152C60.4213 52.3517 58.2677 1.49476 26.2785 1.02872ZM26.0302 16.8355C39.432 17.2908 37.9719 31.8901 24.6528 30.8936C11.5637 30.1989 15.0297 16.1323 26.0302 16.8355Z"
    fill="#EE6F65" />
  <path
    d="M17.7489 17.3387C19.7919 11.2704 31.7945 11.0348 34.9918 16.2894C36.0366 18.6506 34.9916 19.7001 33.1628 18.1258C31.334 16.5516 31.0728 14.9773 26.8927 15.2397C22.7127 15.5022 17.7489 17.3387 17.7489 17.3387Z"
    fill="#F2938C" />
  <path
    d="M26.7153 0.000150512C24.4196 0.00850417 22.1829 0.403676 20.3612 1.28433C17.9971 2.4272 16.1797 2.04302 14.0912 3.55758C7.7709 5.47971 -1.6404 13.9471 0.245148 21.2391C0.600369 22.613 1.27482 30.8156 1.81242 31.5952C11.6342 44.8424 10.1731 42.4627 25.5287 43.3793C34.9917 45.6674 37.8527 41.645 45.4416 36.142C47.6725 34.5243 48.3445 30.0228 49.6215 27.5536C52.6984 18.7493 50.1928 7.71295 40.9999 3.30477C38.6246 2.15637 35.8336 1.80815 33.4238 1.03152C31.3656 0.368239 29.011 -0.00864281 26.7153 0.000150512Z"
    fill="#CA11AF" />
  <path
    d="M4.16377 36.8856C7.47896 47.7234 21.8429 49.8858 31.857 48.4295C36.0366 47.7742 42.5679 43.7074 44.6579 41.0836C46.7479 38.4599 45.4416 37.804 45.4416 37.804C40.7192 42.4656 34.0964 47.3444 24.8026 44.7562C15.3543 43.6964 10.4863 46.1045 4.16377 36.8856Z"
    fill="#F2938C" />
  <path
    d="M24.771 1.77558C15.605 5.18088 -1.25722 10.9377 4.08116 24.2248C4.66972 27.1812 5.11023 29.5961 6.66709 32.2019C8.31449 34.9593 11.7418 33.9626 14.2412 34.7992C16.2639 35.4764 17.8846 36.8143 19.7832 37.7677C50.224 48.8631 59.3019 -3.29315 24.771 1.77558Z"
    fill="#DB12BE" />
  <path
    d="M27.7267 2.70319C-12.3298 9.67093 10.0007 47.4984 40.2898 29.4198C49.666 20.2352 41.1687 0.446563 27.7267 2.70319Z"
    fill="#EF41D6" />
  <path
    d="M7.2212 12.9072C2.40317 19.5876 20.9753 29.6256 24.4014 31.8307C28.4897 34.1081 29.2522 36.3233 32.6221 34.7065L32.5297 32.7585C30.9656 30.8259 9.33003 19.8875 10.6382 14.1137C11.0082 11.8868 12.4861 10.2171 14.8877 10.0316C19.1874 9.0498 24.5628 15.467 27.0801 12.7222C28.3733 10.681 27.6343 9.56782 29.2969 7.52698C30.9596 5.48622 32.6222 5.20791 34.6542 5.94998C36.6862 6.69205 39.642 9.47496 39.8268 12.1651C39.2782 19.3397 36.4622 25.7796 34.8391 31.7382C34.5618 33.0368 33.7305 33.9644 35.1161 33.5935C36.5016 33.2224 37.4252 33.5007 37.7024 32.6659C37.9795 31.8309 39.7344 26.9145 40.4734 25.6158C41.76 22.3059 45.7789 12.5234 42.7826 8.73307C41.6741 7.06321 34.4696 2.14678 32.9917 2.33223C31.5138 2.51777 29.5741 1.03354 27.7268 3.0743C25.8794 5.11505 25.3252 6.32097 23.8473 7.24867C22.3695 8.17627 21.5382 7.99073 19.8755 7.4342C18.2129 6.87767 11.7472 7.1559 9.99232 9.10397C8.23722 11.052 7.2212 12.9072 7.2212 12.9072Z"
    fill="#DB12BE" />
  <path
    d="M32.3526 2.45789C27.0364 2.25467 23.4972 8.2949 23.8473 10.3095C21.9906 9.32433 13.0335 4.64497 8.32974 11.6081C4.63516 17.9165 10.5465 23.1112 19.5985 28.3059C28.6505 33.5007 33.4538 39.623 36.779 32.573C42.8245 20.7223 48.7558 5.26656 32.3526 2.45789ZM33.2685 4.65103C35.67 4.55826 39.18 7.61975 40.3808 10.2171C41.5816 12.8145 38.7183 22.6473 37.2404 26.1722C35.7625 29.6972 34.1925 33.1296 32.0681 32.6658C29.9437 32.202 19.229 25.2447 14.6106 21.9981C9.99229 18.7514 9.71525 16.6176 9.71525 14.0202C9.71525 11.4229 12.7631 9.56746 15.257 9.28916C17.7509 9.01085 23.7548 12.1648 23.7548 12.1648C28.6767 14.4225 25.4393 3.31797 33.2685 4.65103Z"
    fill="#AA0000" />
  <path
    d="M33.9153 3.0743C27.7347 1.51525 25.4308 9.0287 27.3573 6.50678C28.2809 5.11506 29.9435 3.90914 31.5137 3.90914C33.084 3.90914 34.9313 4.55853 35.116 4.09468C35.3008 3.63092 34.5619 3.16707 33.9153 3.0743Z"
    fill="#D70000" />
  <path
    d="M14.793 21.1995C20.4876 15.7754 29.9846 11.1991 37.9137 11.2945C38.4548 11.3629 40.3992 11.265 39.9387 12.3445C39.4283 13.5405 37.693 12.8943 36.8689 13.7219C36.6267 13.9652 38.5929 13.5771 39.1549 14.7058C40.0042 16.4117 39.2091 17.7342 38.0445 18.9039C37.9656 18.9832 39.0423 19.6668 38.6324 20.2157C37.6308 21.5569 34.2264 22.8545 32.6889 23.6266C30.5671 24.6921 24.8043 29.1827 22.5653 26.1847C19.6918 22.2363 33.7644 19.0467 31.7095 17.9201C30.968 17.6222 30.0669 18.2148 29.3579 18.3792C27.0462 18.9149 24.7337 19.6294 22.5653 20.6093C20.7977 21.4082 19.3159 22.7739 17.2749 22.7739C15.9458 22.7738 14.7929 22.7167 14.793 21.1995Z"
    fill="#DB12BE" />
  <path
    d="M37.9794 26.5434C37.9794 26.5434 36.0398 31.6454 34.7466 32.4802C33.4535 33.315 32.8992 34.0572 31.8832 33.5006C30.8672 32.944 26.7107 30.4394 26.6183 31.0887C26.5259 31.738 31.6061 35.0776 33.1764 34.7993C34.7466 34.521 36.0398 33.8717 36.5015 32.2019C36.9634 30.5321 38.3489 27.471 38.8107 25.9868C39.2726 24.5025 38.626 25.0592 37.9794 26.5434Z"
    fill="#D70000" />
  <path
    d="M41.0276 9.28939C41.0276 9.28939 41.9512 10.7736 41.6742 13.371C41.3971 15.9684 41.3971 17.5454 41.8589 15.9684C42.3208 14.3914 42.5055 12.1651 42.2284 10.7736C41.9512 9.38217 40.7505 7.80517 41.0276 9.28939Z"
    fill="#D70000" />
  <path
    d="M10.5465 10.2171C7.44901 13.7768 9.52657 17.1658 11.101 20.3284C11.2854 20.9777 10.3618 20.5138 9.62289 19.4934C8.88391 18.4731 8.145 16.8961 8.145 14.6698C8.145 12.4435 9.99229 9.84603 10.5465 10.2171Z"
    fill="#D70000" />
  <path
    d="M37.6101 11.9796C33.0919 12.7564 28.4107 13.4612 24.2168 15.4117C23.1661 15.9394 22.1729 16.6685 21.0764 17.0815C20.2609 17.3887 12.7769 22.6075 17.197 21.7196C19.1276 21.3319 20.9569 20.0859 22.739 19.3078C25.8684 17.9413 29.2405 16.9951 32.6223 16.6177C33.561 16.5129 36.0717 15.9076 36.8711 16.7105C37.4805 17.9521 35.8235 18.1206 35.0237 18.3801C31.8824 19.6421 28.5959 21.0846 25.6947 22.8328C25.3604 23.0343 22.9169 24.6812 23.755 25.5229C24.7814 26.5537 29.5021 23.7966 30.4978 23.2966C30.7483 23.1709 37.6366 20.1693 37.1483 19.6789C36.6176 19.1459 32.1929 21.2919 34.562 19.8644C35.9939 19.0016 39.8093 18.1343 38.349 15.6901C37.0362 13.4927 34.4379 14.6246 32.3452 14.9479C30.7118 15.2003 29.1396 15.2317 27.5422 15.6901C27.1531 15.8017 25.373 16.5728 25.0483 16.2467C25.0219 16.2202 27.4053 15.2412 27.7269 15.1335C28.3889 14.7323 43.324 12.6969 37.6101 11.9796Z"
    fill="#AA0000" />
  <path
    d="M23.0225 16.936C21.2674 17.4685 20.0323 18.5233 18.7772 19.8222C17.6561 20.8353 20.9507 19.0453 21.455 18.7726C21.9153 18.5236 25.4844 17.0015 23.2838 17.0015"
    fill="#D70000" />
  <path
    d="M36.673 15.0337C36.293 14.9594 35.4672 14.8623 35.3015 15.3617C35.2332 15.5674 36.6362 15.9992 36.8037 16.0832C37.814 16.5906 37.089 17.4193 37.2609 17.5919C37.9969 18.3311 38.8504 14.4871 36.673 15.0337Z"
    fill="#D70000" />
  <path
    d="M31.4479 20.6747C29.4409 21.5405 27.4376 22.7942 25.7004 24.1512C25.619 24.2148 24.8644 24.8203 24.982 24.9383C25.1608 25.1178 32.7468 21.9285 33.0808 21.593C31.6005 21.8642 29.7183 22.4935 28.313 22.9705C28.313 23.1172 28.5742 22.8393 28.7048 22.7737C29.1067 22.5719 29.5457 22.4129 29.9457 22.1833C30.9216 21.6234 34.0673 20.6747 31.4479 20.6747Z"
    fill="#D70000" />
</svg>
  