<svg width="51" height="50" viewBox="0 0 51 50" fill="none" xmlns="http://www.w3.org/2000/svg">
  <path
    d="M34.9187 11.0701C34.7586 11.0696 34.6108 11.1725 34.5604 11.3344L33.8856 13.5007C33.733 13.9644 34.4634 14.1953 34.6016 13.7256L35.2764 11.5594C35.3551 11.3217 35.1666 11.0667 34.9187 11.0701ZM28.3518 11.9589C28.102 11.8527 26.8765 13.6809 26.716 13.8024C26.5911 13.9594 26.6159 14.1865 26.7722 14.3121C26.9285 14.4375 27.1552 14.4121 27.2802 14.2552L28.6395 12.5486C28.8344 12.3204 28.6459 11.9446 28.3518 11.9589Z"
    fill="#501616" />
  <path
    d="M26.2786 1.02879C-4.25198 -0.670512 -10.285 48.9507 24.1958 49.9152C60.4213 52.3517 58.2676 1.49484 26.2786 1.02879ZM26.0302 16.8355C39.4321 17.2908 37.972 31.89 24.6528 30.8935C11.5636 30.1988 15.0296 16.1323 26.0302 16.8355Z"
    fill="#EE6F65" />
  <path
    d="M17.7489 17.3388C19.7919 11.2704 31.7945 11.0349 34.9919 16.2895C36.0366 18.6507 34.9916 19.7002 33.1628 18.1259C31.334 16.5516 31.0728 14.9775 26.8927 15.2398C22.7127 15.5022 17.7489 17.3388 17.7489 17.3388Z"
    fill="#F2938C" />
  <path
    d="M26.7153 0.000150512C24.4196 0.00850415 22.1829 0.403676 20.3612 1.28433C17.9971 2.42719 16.1797 2.04301 14.0912 3.55757C7.7709 5.47961 -1.6404 13.947 0.245148 21.2391C0.600369 22.6129 1.27482 30.8155 1.81243 31.5951C11.6343 44.8423 10.1731 42.4627 25.5287 43.3792C34.9917 45.6672 37.8527 41.6449 45.4416 36.142C47.6725 34.5243 48.3445 30.0228 49.6215 27.5535C52.6984 18.7492 50.1928 7.71293 40.9999 3.30476C38.6246 2.15636 35.8336 1.80814 33.4238 1.03152C31.3656 0.368239 29.011 -0.00864279 26.7153 0.000150512Z"
    fill="#FF80B2" />
  <path
    d="M4.16373 36.8856C7.47892 47.7233 21.8429 49.8858 31.857 48.4294C36.0366 47.7742 42.568 43.7074 44.658 41.0836C46.748 38.4599 45.4417 37.804 45.4417 37.804C40.7193 42.4656 34.0964 47.3443 24.8026 44.7562C15.3544 43.6964 10.4863 46.1044 4.16373 36.8856Z"
    fill="#F2938C" />
  <path
    d="M25.5893 1.42389C18.6082 1.6344 13.2621 6.02437 8.03958 9.95806C-1.05512 16.8084 2.58903 29.6602 10.6259 36.1173C13.5071 38.4322 17.1313 37.3126 20.4167 37.9726C24.957 38.8845 28.4422 40.2951 33.1633 38.7146C36.9657 37.4417 41.4522 35.2606 43.8779 31.8501C47.709 26.4636 50.0877 13.4115 44.8016 8.10276C39.7187 2.99807 32.1891 1.42389 25.5893 1.42389Z"
    fill="#FF9CC3" />
  <path
    d="M22.2641 2.90813C15.877 5.55192 5.0997 13.7614 9.88664 21.6461C10.6442 23.4208 11.4639 25.5581 13.2122 26.6554C20.3496 31.1354 36.9176 32.9875 42.0307 24.4291C46.1526 17.5298 45.6557 8.43894 38.336 4.76333C35.9008 3.54045 33.4313 3.92534 30.9467 3.09358C28.9355 2.42036 24.1491 1.64611 22.2641 2.90813Z"
    fill="#FFB1D0" />
  <path
    d="M13.241 31.8318H15.5884C15.8035 31.8318 15.9779 32.007 15.9779 32.223C15.9779 32.4391 15.8035 32.6143 15.5884 32.6143H13.241C13.0259 32.6143 12.8515 32.4391 12.8515 32.223C12.8514 32.007 13.0258 31.8318 13.241 31.8318Z"
    fill="#00FFFF" />
  <path
    d="M37.5211 9.09551C37.2985 9.10167 37.1255 9.29512 37.1441 9.51821L37.3323 11.8681C37.3497 12.0842 37.5369 12.2437 37.7521 12.2263C37.9672 12.2089 38.126 12.0213 38.1087 11.8053L37.9204 9.45533C37.9037 9.24605 37.7276 9.08936 37.5211 9.09551ZM26.5252 9.60464C26.4803 9.48382 24.5606 11.0067 24.4825 11.0401C24.1718 10.6387 23.5528 11.1366 23.874 11.5283L25.3369 13.3718C25.4715 13.5412 25.7157 13.5687 25.8845 13.4335C26.0532 13.2984 26.0806 13.0531 25.946 12.8836L24.9685 11.6523L26.7737 10.3108C27.0855 10.0968 26.8924 9.57492 26.5252 9.60464ZM29.5843 10.2211C29.3195 10.2183 29.1232 10.5004 29.2218 10.7496L30.042 12.9578C30.211 13.4354 30.9569 13.1584 30.7719 12.6844L29.9517 10.4757C29.8926 10.317 29.7432 10.2199 29.5843 10.2211ZM14.7394 11.09C14.4079 10.9764 13.3242 13.0793 13.1405 13.245C13.023 13.4267 13.0741 13.6683 13.255 13.7863C13.436 13.9044 13.6765 13.8531 13.794 13.6714L15.0726 11.6946C15.2474 11.4424 15.0407 11.0763 14.7394 11.09ZM27.1096 11.2689C26.7766 11.2657 26.5953 11.7164 26.8503 11.9433L28.5485 13.5704C28.9082 13.9265 29.4584 13.3495 29.0864 13.0044C28.9217 12.9067 27.3166 11.1508 27.1096 11.2689ZM32.5803 11.5916C32.0888 11.5823 32.0671 12.3582 32.5617 12.3735L34.9058 12.4911C35.4095 12.5244 35.451 11.7265 34.9448 11.7092C34.9193 11.709 32.6046 11.5911 32.5803 11.5916ZM11.2707 15.5477C11.034 15.5446 10.8457 15.7604 10.8825 15.9961L11.2241 18.3283C11.2897 18.8312 12.0767 18.7166 11.9946 18.2144L11.653 15.8823C11.6245 15.6879 11.4602 15.5486 11.2707 15.5477Z"
    fill="#501616" />
  <path
    d="M37.2147 22.8419C36.945 22.7278 35.6249 24.7 35.4517 24.8315C35.1301 25.2228 35.7507 25.7222 36.0604 25.3197L37.5255 23.4777C37.7352 23.2318 37.5311 22.8271 37.2147 22.8419ZM39.0889 28.1669C38.9226 28.0467 37.2293 29.7751 37.0885 29.8526C36.9287 29.9982 36.9168 30.2447 37.0618 30.4053C37.2067 30.5658 37.4521 30.5777 37.612 30.4321L39.3503 28.8484C39.6171 28.6228 39.4308 28.1545 39.0889 28.1669Z"
    fill="#501616" />
  <path
    d="M13.2797 22.7942C12.8505 22.7846 12.7485 23.4471 13.1722 23.5605L15.4207 24.2372C15.6274 24.2994 15.8438 24.1822 15.9057 23.9746C15.9676 23.767 15.851 23.5497 15.6442 23.4875L13.3958 22.8109C13.3569 22.7992 13.318 22.7938 13.2797 22.7942ZM19.831 23.8875C19.7813 23.7909 17.7398 25.2013 17.6595 25.2311C17.2311 25.4994 17.6619 26.1709 18.0825 25.8878L20.0534 24.6076C20.3854 24.4092 20.2077 23.8626 19.831 23.8875ZM8.07148 25.6479C7.73876 25.6452 7.55708 26.096 7.81213 26.3229L9.51092 27.9495C9.87087 28.3056 10.4206 27.7285 10.0483 27.3835C9.88366 27.2855 8.2782 25.5306 8.07148 25.6479ZM20.0898 26.0978C19.9083 26.101 19.7489 26.2314 19.7144 26.4179L19.2866 28.7356C19.1866 29.233 19.9682 29.3794 20.0523 28.8779L20.4807 26.5603C20.5282 26.3197 20.3332 26.0907 20.0898 26.0978ZM15.3282 26.9903C14.8631 26.9838 14.8107 27.7145 15.279 27.769L17.604 28.0971C18.1027 28.1756 18.2141 27.3846 17.7119 27.3221C17.6533 27.3185 15.3828 26.9848 15.3282 26.9903ZM20.677 27.3861C20.3685 27.3852 20.1775 27.7773 20.3797 28.0192L21.8277 29.8746C21.9608 30.0452 22.2043 30.0749 22.3742 29.9412C22.544 29.8075 22.5736 29.5624 22.4405 29.3919C22.2484 29.2424 20.9797 27.2676 20.677 27.3861Z"
    fill="#501616" />
  <path
    d="M24.0751 13.4442C23.8595 13.4542 23.6936 13.6369 23.7035 13.8535L23.8115 16.2082C23.8214 16.4247 24.0029 16.5908 24.2185 16.5809C24.4341 16.571 24.5995 16.3888 24.5896 16.1723L24.4821 13.8175C24.4721 13.6009 24.2907 13.4343 24.0751 13.4442ZM17.9574 14.7573C17.6712 14.7596 17.479 15.0973 17.6317 15.3453L18.8097 17.3837C18.918 17.5712 19.1557 17.6349 19.3423 17.526C19.529 17.4172 19.5924 17.1786 19.484 16.9911C19.2819 16.7918 18.3503 14.6335 17.9574 14.7573ZM14.6988 15.2078C14.5251 15.2098 14.3693 15.3287 14.3261 15.5064L13.7694 17.7962C13.6417 18.2868 14.4139 18.4782 14.5261 17.982L15.0827 15.6917C15.1462 15.4469 14.9492 15.2017 14.6988 15.2078ZM5.78344 16.1954C5.7049 16.0688 3.75368 17.6185 3.65316 17.6604C3.2405 17.9527 3.70832 18.5989 4.11249 18.2924L6.00855 16.9032C6.31307 16.6971 6.14251 16.1861 5.78344 16.1954ZM20.1502 17.6802C19.8416 17.6769 19.6488 18.0684 19.8497 18.3112L21.2881 20.1741C21.4203 20.3454 21.6641 20.3762 21.8346 20.2434C22.0051 20.1106 22.0358 19.8658 21.9036 19.6946C21.7122 19.5442 20.4541 17.5624 20.1502 17.6802Z"
    fill="#FFD5F6" />
  <path
    d="M40.383 6.17631C40.1672 6.17385 39.9913 6.34681 39.9889 6.56348L39.9632 8.92044C39.9608 9.13719 40.1324 9.31385 40.3482 9.31623C40.5641 9.31869 40.74 9.14634 40.7423 8.92958L40.768 6.5721C40.7704 6.35543 40.5987 6.17868 40.383 6.17631ZM35.5347 7.35619C35.2487 7.35672 35.0536 7.69307 35.2048 7.94209L36.3699 9.98865C36.477 10.1768 36.7141 10.2417 36.9014 10.1342C37.0887 10.0266 37.1533 9.7886 37.0463 9.60042C36.8457 9.39967 35.9278 7.23564 35.5347 7.35619Z"
    fill="#FFD5F6" />
  <path
    d="M47.8235 25.208C47.779 25.2083 47.734 25.2166 47.6898 25.2332L45.4916 26.0602C45.2895 26.1363 45.1876 26.361 45.2632 26.5639C45.339 26.7669 45.5627 26.8687 45.7648 26.7927L47.963 25.9657C48.3677 25.8282 48.2425 25.1897 47.8235 25.208ZM40.0519 31.5748C39.8857 31.5743 39.7321 31.6817 39.6797 31.8498L38.9777 34.0993C38.8192 34.5808 39.578 34.8207 39.7215 34.3328L40.423 32.0833C40.505 31.8363 40.3094 31.5721 40.0519 31.5748ZM37.0923 34.6357C36.822 34.5236 35.5183 36.5072 35.3464 36.6398C35.0282 37.0338 35.653 37.5281 35.9592 37.1232L37.4083 35.2684C37.6161 35.0205 37.4091 34.6174 37.0923 34.6357ZM36.8185 38.9657C36.4261 38.8516 35.5803 41.066 35.3929 41.2651C35.2931 41.4572 35.3664 41.6926 35.5577 41.7931C35.749 41.8934 35.9834 41.8198 36.0833 41.6276L37.1704 39.5381C37.3115 39.2841 37.1045 38.9544 36.8185 38.9657Z"
    fill="#FFD5F6" />
  <path
    d="M26.5343 3.65458C26.3627 3.54317 24.7513 5.34835 24.614 5.43259C24.4612 5.58559 24.4607 5.83224 24.613 5.98578C24.7653 6.13931 25.0114 6.13983 25.1643 5.98692L26.8272 4.32322C27.0836 4.08519 26.8747 3.62697 26.5343 3.65458ZM26.7653 6.92226C26.7209 6.92244 26.6759 6.93 26.6316 6.94644L24.4291 7.7622C24.2266 7.8372 24.1235 8.06091 24.1982 8.2643C24.2728 8.46769 24.4962 8.57127 24.6986 8.49626L26.9011 7.68104C27.306 7.5458 27.1839 6.90634 26.7653 6.92226Z"
    fill="#00D4AA" />
  <path
    d="M13.0792 4.81239C12.8813 4.81406 12.7139 4.96557 12.6953 5.1679L12.4787 7.51519C12.424 8.01905 13.2157 8.09405 13.254 7.58712L13.4711 5.23983C13.4939 5.00936 13.3089 4.81037 13.0792 4.81239ZM5.34182 20.66C5.10524 20.6637 4.92277 20.8842 4.96593 21.1187L5.37019 23.4413C5.44907 23.9421 6.2328 23.8058 6.13754 23.3065L5.73329 20.9839C5.69949 20.7904 5.53129 20.6558 5.34182 20.66Z"
    fill="#00D4AA" />
  <path
    d="M21.2693 37.5657C20.9016 37.5608 20.7431 38.094 21.0683 38.2864L23.0445 39.558C23.4653 39.8385 23.8959 39.1672 23.4648 38.8996C23.389 38.8719 21.2947 37.4362 21.2693 37.5657Z"
    fill="#00D4AA" />
  <path
    d="M42.0882 17.7597C42.056 17.7598 42.0234 17.7645 41.9909 17.7731L39.7199 18.3703C39.2293 18.4912 39.4298 19.2644 39.9178 19.1275L42.1881 18.5298C42.625 18.4283 42.5291 17.744 42.0882 17.7597ZM42.8977 19.3304C42.4566 19.3254 42.3766 20.0117 42.8165 20.1026L45.1013 20.6429C45.3113 20.6926 45.5202 20.5628 45.5697 20.3518C45.6192 20.1409 45.4899 19.9306 45.2799 19.8809L42.9951 19.3406C42.9622 19.3329 42.9298 19.3298 42.8977 19.3304ZM39.391 21.2648C39.1337 21.2624 38.9376 21.5253 39.0194 21.7728L39.7183 24.0233C39.8608 24.5096 40.6205 24.2728 40.4621 23.7902L39.7632 21.5396C39.711 21.3716 39.5572 21.2644 39.391 21.2648Z"
    fill="#00D4AA" />
  <path
    d="M28.1154 27.079C28.0833 27.0801 28.0509 27.0851 28.0186 27.0946L25.7653 27.7562C25.2784 27.8907 25.5 28.6577 25.9841 28.5068L28.2367 27.8458C28.6703 27.732 28.5561 27.0506 28.1154 27.079Z"
    fill="#FFD42A" />
  <path
    d="M26.6299 8.59614C26.2331 8.58576 26.0941 9.18151 26.4685 9.34208L28.5934 10.3436C29.0471 10.5665 29.3862 9.84391 28.9244 9.63533C28.9047 9.63718 26.5664 8.48886 26.6299 8.59614ZM41.2251 8.81254C40.8837 8.80999 40.7082 9.28158 40.9818 9.50044L42.7618 11.0373C42.9255 11.1786 43.1703 11.1598 43.311 10.9955C43.4517 10.8311 43.4335 10.5853 43.2698 10.444C43.1194 10.3639 41.3957 8.69357 41.2251 8.81254ZM38.1853 10.655C38.104 10.5303 36.1917 12.1295 36.0924 12.1736C35.6874 12.4759 36.1713 13.1101 36.5672 12.7939L38.428 11.3569C38.7271 11.1433 38.544 10.6365 38.1853 10.655ZM8.38487 11.3719C8.21877 11.378 8.06975 11.4913 8.02396 11.6614L7.41114 13.9367C7.2714 14.4243 8.03902 14.6342 8.16352 14.1412L8.77625 11.8654C8.84849 11.6152 8.64185 11.3599 8.38487 11.3719ZM11.6649 11.6152C11.6422 11.6147 9.32191 11.6884 9.29871 11.6883C9.08305 11.695 8.91459 11.875 8.92125 12.0916C8.9279 12.3082 9.10713 12.4774 9.32279 12.4707L11.6692 12.3977C12.1622 12.3916 12.1568 11.6151 11.6649 11.6152Z"
    fill="#FFD42A" />
  <path
    d="M33.3882 37.2634C33.3133 37.2653 33.2381 37.2892 33.1722 37.3365L31.2628 38.7074C30.8473 38.9955 31.3087 39.6461 31.7157 39.3438L33.6252 37.9728C33.9395 37.7645 33.7559 37.2393 33.3882 37.2634ZM29.7447 40.2514C29.5711 40.2575 29.4178 40.3804 29.379 40.559L28.8769 42.8617C28.761 43.3556 29.5379 43.5278 29.6383 43.0292L30.1398 40.7265C30.1975 40.4803 29.9949 40.2397 29.7447 40.2514Z"
    fill="#FFD42A" />
  <path
    d="M17.6737 18.2869C17.4346 18.1758 16.0295 20.1018 15.8669 20.2184C15.7269 20.3834 15.7465 20.6294 15.9107 20.77C16.075 20.9106 16.3199 20.8909 16.4599 20.726L17.9828 18.9318C18.2064 18.6866 17.9981 18.2655 17.6737 18.2869Z"
    fill="#FFD42A" />
  <path
    d="M38.6718 15.7185C38.3104 15.6642 37.9323 16.7142 37.7537 16.9165C37.7739 16.5311 37.2131 16.3646 37.0269 16.7136L35.8453 18.7499C35.5836 19.1843 36.2706 19.587 36.5185 19.1441L37.0987 18.1437C37.0857 18.5246 37.6394 18.6851 37.8242 18.3407L39.0129 16.3081C39.1711 16.0552 38.9656 15.7062 38.6718 15.7185ZM21.2694 19.8223C21.0398 19.8225 20.8582 20.0264 20.8844 20.2557L21.0951 22.2067C20.6801 22.1875 20.5543 22.825 20.956 22.9627L23.1484 23.8043C23.35 23.8816 23.5745 23.7806 23.6516 23.5782C23.7286 23.3758 23.628 23.1507 23.4265 23.0734L21.9089 22.4908L21.6587 20.1715C21.6369 19.9694 21.4674 19.8209 21.2694 19.8223Z"
    fill="#FFD42A" />
  <path
    d="M26.8565 4.3939C26.6338 4.39883 26.4597 4.59105 26.4774 4.81431L26.656 7.16476C26.6724 7.3809 26.8585 7.54208 27.0737 7.52564C27.2889 7.50919 27.4489 7.32181 27.4325 7.10567L27.2544 4.75522C27.2385 4.54594 27.0632 4.38854 26.8565 4.3939ZM17.1097 9.71948L14.7644 9.82579C14.5488 9.83555 14.3831 10.0179 14.3928 10.2344C14.4025 10.4509 14.5841 10.6175 14.7997 10.6077L17.1445 10.5014C17.6492 10.4866 17.6149 9.68844 17.1097 9.71948ZM18.6107 11.2628C18.1823 11.2475 18.0713 11.9088 18.4931 12.0275L20.733 12.7342C21.2124 12.8937 21.4515 12.1317 20.9661 11.9872L18.7267 11.281C18.6881 11.2689 18.6491 11.263 18.6107 11.2628ZM40.6448 12.4206C40.6187 12.381 39.2335 12.9896 39.1748 13.0048C38.8952 12.2979 38.0068 12.6791 38.4412 13.3093C37.7247 13.5901 38.2438 14.4061 38.8802 13.9741L39.6817 15.1883C39.9544 15.6157 40.6176 15.1741 40.3314 14.7554L39.6139 13.6696L40.8089 13.1734C41.2086 13.0228 41.0621 12.3886 40.6448 12.4206ZM34.3528 15.0101C34.3206 15.0106 34.288 15.0152 34.2555 15.024L31.9905 15.6432C31.501 15.7685 31.7096 16.5396 32.1953 16.3982L33.2673 16.105C33.136 16.2548 34.731 18.0875 34.7949 18.2289C35.0993 18.6335 35.7266 18.1421 35.4088 17.7472L33.979 15.9106L34.4602 15.779C34.8964 15.6734 34.793 14.9902 34.3528 15.0101ZM5.24435 18.9834C4.94368 18.9793 4.74588 19.3496 4.92783 19.5972L6.26089 21.5374C6.38347 21.7158 6.62496 21.7604 6.80261 21.6373C6.98027 21.5142 7.02466 21.2718 6.90208 21.0934C6.70726 20.9243 5.57917 18.8676 5.24435 18.9834ZM35.6767 19.6445C35.6543 19.6443 33.3382 19.8115 33.3154 19.8121C33.1002 19.8274 32.9392 20.0137 32.9545 20.2299C32.9697 20.4461 33.1553 20.6076 33.3705 20.5923L35.712 20.4259C36.2048 20.4003 36.1685 19.6249 35.6767 19.6445ZM13.6896 21.6819C13.2607 21.6815 13.173 22.3465 13.5987 22.4503L15.8617 23.077C16.3462 23.2199 16.5591 22.4504 16.0691 22.3231L13.8062 21.6964C13.7672 21.6856 13.728 21.6807 13.6896 21.6819ZM39.6181 22.8827C39.4287 22.889 39.2678 23.0329 39.2449 23.228L38.9695 25.5689C38.9024 26.0711 39.6922 26.167 39.7433 25.6607L40.0186 23.3199C40.0487 23.0835 39.8545 22.8733 39.6181 22.8827ZM40.2769 24.3648C39.8118 24.358 39.7595 25.0884 40.2272 25.1435L42.5511 25.4743C42.7303 25.4998 42.8914 25.396 42.9585 25.2364C42.9926 25.2574 43.0309 25.2737 43.0719 25.2836L45.3531 25.8389C45.8424 25.9664 46.0305 25.1904 45.5364 25.0785L43.2554 24.5232C43.0667 24.4773 42.8782 24.5766 42.8051 24.7503C42.7852 24.6863 40.3599 24.3786 40.2769 24.3648ZM19.2213 28.8451C18.971 28.8405 18.774 29.0849 18.8379 29.33L19.3983 31.6193C19.511 32.1141 20.2836 31.9242 20.1549 31.4324L19.5945 29.1431C19.5511 28.9656 19.3951 28.8469 19.2213 28.8451ZM26.7565 29.1399C26.5131 29.1393 26.3227 29.3708 26.3753 29.6109L26.8512 31.919C26.9458 32.4169 27.7251 32.2573 27.6143 31.7605L27.1384 29.4519C27.1 29.2663 26.938 29.1393 26.7565 29.1399ZM40.601 30.7649C40.5783 30.7649 38.2618 30.9174 38.2386 30.918C38.0233 30.932 37.8611 31.1168 37.875 31.3332C37.889 31.5495 38.0735 31.7129 38.2889 31.6989L40.631 31.5469C41.1237 31.5244 41.0926 30.7486 40.601 30.7649ZM37.9749 34.749C37.9366 34.7507 37.8975 34.7583 37.8595 34.7721L35.6511 35.5712C35.1737 35.7354 35.4416 36.4877 35.9152 36.3074L38.1236 35.5084C38.5398 35.3723 38.4035 34.7157 37.9749 34.749ZM16.7344 39.9059C16.5277 39.906 16.356 40.0678 16.3456 40.2775L16.2285 42.6323C16.2178 42.8488 16.3825 43.0312 16.598 43.0421C16.8136 43.0529 16.9958 42.8875 17.0066 42.671L17.1236 40.3168C17.1355 40.0932 16.957 39.9054 16.7344 39.9059Z"
    fill="#FF6600" />
  <path
    d="M31.5135 23.8891C31.2633 23.8889 31.0712 24.1375 31.1398 24.381L31.7445 26.659C31.8665 27.1509 32.6354 26.9463 32.4974 26.4576L31.8927 24.1796C31.8457 24.0029 31.6873 23.8874 31.5135 23.8891Z"
    fill="#FF6600" />
  <path
    d="M35.7917 6.06949C35.5866 5.95702 34.0587 7.80591 33.9063 7.90492C33.7579 8.06241 33.765 8.30914 33.9217 8.4581C34.0786 8.60706 34.3236 8.59994 34.472 8.44254L36.0852 6.73004C36.3279 6.49069 36.1244 6.04891 35.7917 6.06949ZM34.0812 9.92095C33.8237 9.91744 33.6273 10.181 33.7085 10.4284L34.4025 12.6801C34.5442 13.1674 35.3042 12.932 35.1469 12.4486L34.4528 10.197C34.401 10.0288 34.2474 9.92095 34.0812 9.92095ZM11.0086 12.7156C10.6781 12.5997 9.57724 14.6933 9.39214 14.8577C9.27315 15.0385 9.32184 15.2799 9.50185 15.3995C9.68187 15.5191 9.92283 15.4702 10.0419 15.2894L11.337 13.3234C11.5139 13.0726 11.3099 12.7048 11.0086 12.7156ZM28.379 18.33C28.018 18.2125 27.0296 20.3622 26.8411 20.543C26.7303 20.729 26.7902 20.9687 26.9754 21.0801C27.1606 21.1914 27.3987 21.1313 27.5096 20.9453L28.7153 18.9229C28.8757 18.6712 28.6725 18.3209 28.379 18.33ZM28.7565 34.0661C28.4321 34.0525 28.2321 34.4771 28.4613 34.718L30.0221 36.4789C30.1656 36.6407 30.4111 36.6546 30.5723 36.5105C30.7335 36.3664 30.7473 36.1203 30.6038 35.9585C30.4318 35.8377 29 33.9569 28.7565 34.0661Z"
    fill="#FF0000" />
  <path
    d="M41.0117 14.6026C40.7474 14.6032 40.5531 14.8861 40.654 15.1342L41.4961 17.3349C41.6697 17.8116 42.4125 17.5258 42.2234 17.0541L41.3812 14.854C41.3208 14.6959 41.1707 14.5999 41.0117 14.6026ZM32.7333 27.0612C32.5743 27.0655 32.4285 27.1681 32.375 27.3286L31.6301 29.5642C31.4624 30.0425 32.2162 30.2972 32.3691 29.8123L33.114 27.5768C33.2039 27.3247 32.9975 27.0499 32.7333 27.0612Z"
    fill="#FF0000" />
  <path
    d="M34.4972 24.432C34.2186 24.4297 34.0208 24.7463 34.1524 24.997L35.1929 27.1101C35.4095 27.5682 36.123 27.2153 35.8912 26.7632C35.6935 26.5433 34.923 24.3153 34.4972 24.432Z"
    fill="#FF0000" />
  <path
    d="M47.0481 15.1398C46.6578 15.0183 45.7679 17.2152 45.5765 17.4107C45.4728 17.6008 45.5418 17.8377 45.7311 17.9419C45.9203 18.0461 46.1562 17.9767 46.26 17.7867L47.3882 15.7198C47.5345 15.4684 47.334 15.1352 47.0481 15.1398ZM48.1946 24.9477C48.0357 24.954 47.8911 25.0582 47.8395 25.2194L47.1214 27.4636C46.9589 27.9438 47.7159 28.1891 47.8631 27.703L48.5812 25.4583C48.668 25.2053 48.4585 24.9334 48.1946 24.9477ZM47.2844 28.1768C46.8596 28.0693 46.1682 30.3439 45.9844 30.5622C45.8966 30.7602 45.9843 30.9906 46.1813 31.0789C46.3784 31.167 46.6078 31.0787 46.6957 30.8807L47.6517 28.7273C47.7731 28.4718 47.563 28.1626 47.2844 28.1768ZM36.3757 35.2218C36.0513 35.2115 35.8557 35.6382 36.0874 35.8765L37.667 37.6207C37.8122 37.781 38.0576 37.7929 38.2172 37.647C38.3768 37.5011 38.3886 37.2547 38.2434 37.0944C38.0698 36.9754 36.6183 35.1099 36.3757 35.2218Z"
    fill="#FFFF00" />
  <path
    d="M23.8998 11.0868C23.7336 11.0869 23.5805 11.194 23.5287 11.3623L22.8351 13.6145C22.6779 14.0965 23.4376 14.3336 23.5795 13.8459L24.273 11.5938C24.354 11.3465 24.1572 11.083 23.8998 11.0868Z"
    fill="#FFFF00" />
  <path
    d="M29.3362 4.85475C29.012 4.85185 28.8257 5.28281 29.0625 5.51583L30.6784 7.22569C31.0201 7.59914 31.598 7.05017 31.2435 6.68701C31.067 6.57138 29.5771 4.73789 29.3362 4.85475ZM22.0908 17.51C22.0119 17.3839 20.0741 18.9529 19.9744 18.9954C19.5647 19.2913 20.0386 19.9331 20.4395 19.6231L22.3228 18.2151C22.6254 18.0061 22.4497 17.497 22.0908 17.51ZM34.4337 36.889C34.3434 36.8479 32.2499 37.8634 32.1418 37.8894C31.945 37.9783 31.8577 38.2089 31.9462 38.4066C32.0346 38.6042 32.2643 38.6919 32.4611 38.6031L34.6022 37.637C34.9877 37.4786 34.8413 36.8648 34.4337 36.889Z"
    fill="#FFFF00" />
  <path
    d="M16.9521 11.6329L14.6052 11.6581C14.1004 11.6553 14.1068 12.4544 14.6132 12.4406L16.9606 12.4153C17.4661 12.4181 17.4584 11.6193 16.9521 11.6329Z"
    fill="#FFFF00" />
  <path
    d="M10.8971 35.7131L11.1137 33.3657C11.1335 33.1506 11.3233 32.9923 11.5375 33.0123C11.7518 33.0322 11.9094 33.2228 11.8895 33.4379L11.673 35.7853C11.6531 36.0005 11.4634 36.1587 11.2491 36.1388C11.0349 36.1188 10.8772 35.9283 10.8971 35.7131Z"
    fill="#00FFFF" />
  <path
    d="M23.9321 26.7988L24.1151 29.149C24.1319 29.3645 23.9716 29.5527 23.757 29.5695C23.5425 29.5864 23.3551 29.4254 23.3383 29.21L23.1553 26.8598C23.1385 26.6443 23.2988 26.4561 23.5133 26.4392C23.7279 26.4225 23.9153 26.5834 23.9321 26.7988Z"
    fill="#00FFFF" />
  <path
    d="M36.8761 17.4791L38.3675 19.2995C38.5041 19.4664 38.4803 19.7129 38.3141 19.8503C38.148 19.9875 37.9025 19.9635 37.7658 19.7967L36.2744 17.9762C36.1377 17.8094 36.1615 17.5629 36.3277 17.4256C36.4939 17.2882 36.7394 17.3123 36.8761 17.4791Z"
    fill="#00FFFF" />
  <path
    d="M30.4606 6.92884L32.3404 8.3407C32.5127 8.47014 32.5479 8.71529 32.419 8.88834C32.2902 9.0614 32.0461 9.09675 31.8737 8.96731L29.994 7.55546C29.8217 7.42602 29.7865 7.18086 29.9153 7.00781C30.0442 6.83484 30.2883 6.79941 30.4606 6.92884Z"
    fill="#00FFFF" />
  <path
    d="M11.9027 10.8177L14.0007 11.8749C14.193 11.9718 14.2706 12.2069 14.1742 12.4C14.0777 12.5931 13.8435 12.6711 13.6513 12.5742L11.5533 11.5169C11.361 11.42 11.2834 11.1849 11.3798 10.9918C11.4763 10.7988 11.7105 10.7208 11.9027 10.8177Z"
    fill="#00FFFF" />
  <path
    d="M9.33206 20.4383L7.5078 18.9547C7.34057 18.8188 7.31482 18.5724 7.45019 18.4045C7.58555 18.2365 7.83089 18.2107 7.99812 18.3466L9.82238 19.83C9.98962 19.966 10.0154 20.2124 9.88 20.3803C9.74463 20.5484 9.4993 20.5742 9.33206 20.4383Z"
    fill="#00FFFF" />
  <path
    d="M7.09376 18.5083L6.88694 20.8566C6.86803 21.0718 6.67891 21.2308 6.46457 21.2118C6.24121 21.2056 6.0808 20.9525 6.11092 20.7869C6.11644 20.727 6.31721 18.4385 6.31913 18.4249C6.34514 18.2171 6.5305 18.0656 6.73994 18.0842C6.95436 18.1031 7.11267 18.293 7.09376 18.5083Z"
    fill="#00FFFF" />
  <path
    d="M46.9885 28.8149L46.2533 31.0537C46.1859 31.2589 45.9657 31.3704 45.7613 31.3027C45.5453 31.2454 45.4466 30.9623 45.5136 30.8079C45.5327 30.7508 46.2486 28.5685 46.2536 28.5557C46.3262 28.3595 46.541 28.2547 46.7407 28.3208C46.9449 28.3885 47.0559 28.6097 46.9885 28.8149Z"
    fill="#00FFFF" />
  <path
    d="M38.3798 35.2743L40.6512 34.6796C40.8594 34.625 41.0722 34.7504 41.1265 34.9595C41.1808 35.1686 41.056 35.3822 40.8478 35.4368L38.5765 36.0315C38.3683 36.086 38.1555 35.9607 38.1012 35.7516C38.0468 35.5425 38.1716 35.3289 38.3798 35.2743Z"
    fill="#00FFFF" />
  <path
    d="M39.5799 31.349L40.3818 29.1335C40.4553 28.9304 40.6788 28.8256 40.881 28.8995C41.0832 28.9732 41.1876 29.1977 41.114 29.4008L40.3121 31.6163C40.2385 31.8194 40.0151 31.9242 39.8128 31.8503C39.6107 31.7765 39.5064 31.5521 39.5799 31.349Z"
    fill="#00FFFF" />
</svg>
  