<svg width="51" height="50" viewBox="0 0 51 50" fill="none" xmlns="http://www.w3.org/2000/svg">
  <path d="M24.5897 1.313C55.0732 -0.376448 61.097 48.9569 26.6692 49.9157C-9.50057 52.338 -7.35023 1.77625 24.5897 1.313ZM24.8376 17.0279C11.4564 17.4806 12.9143 31.9952 26.2129 31.0044C39.2819 30.3137 35.8212 16.3288 24.8376 17.0279Z" fill="#EE6F65"/>
  <path d="M33.1063 17.5283C31.0665 11.495 19.0823 11.2609 15.8899 16.485C14.8467 18.8325 15.8901 19.8759 17.7161 18.3108C19.5421 16.7457 19.8029 15.1805 23.9766 15.4414C28.1501 15.7023 33.1063 17.5283 33.1063 17.5283Z" fill="#F2938C"/>
  <path d="M46.6705 36.9616C43.3604 47.7365 29.0185 49.8864 19.0198 48.4385C14.8467 47.787 8.32537 43.7438 6.23859 41.1353C4.15181 38.5267 5.45607 37.8747 5.45607 37.8747C10.1713 42.5092 16.7839 47.3597 26.0634 44.7866C35.4971 43.7329 40.3576 46.127 46.6705 36.9616Z" fill="#F2938C"/>
  <path d="M23.907 0.00992335C18.3336 -0.184767 12.7996 2.51249 8.30764 5.70989C6.4687 6.91335 5.38903 8.88893 3.87312 10.4048C2.60741 11.6706 1.42327 14.018 1.13425 15.7523C-2.26676 24.403 2.39436 33.6494 9.61234 38.5768C13.5583 41.0793 20.8263 44.3707 25.0025 43.272C27.5689 42.5387 30.1606 41.9145 32.8278 42.359C34.3866 42.6188 35.8871 43.5057 37.5229 43.272C40.5947 42.8331 43.5013 39.1203 45.3488 37.2728C46.0561 36.5654 47.2467 36.1377 48.0876 35.5771C50.2445 34.1392 50.333 28.4674 50.6962 25.9257C51.5056 21.7489 49.4046 14.067 46.5223 10.5352C40.7869 4.39461 32.4687 0.026184 23.907 0.00992335ZM24.8765 11.0856C28.054 11.0918 31.259 11.9663 33.4797 14.187C35.0963 15.8036 34.299 18.5074 34.7841 20.4475C35.5115 22.4932 36.6181 18.1078 37.917 21.3556C37.6618 21.806 37.4744 22.2561 37.3927 22.6647C36.0169 29.5437 34.3722 30.2965 26.8282 31.7944C21.8099 32.7908 17.1933 30.919 14.4993 26.8894C9.68831 19.79 15.8037 10.3849 24.8765 11.0856Z" fill="#FFE585"/>
  <path d="M9.50899 5.94261C8.03338 7.41822 4.0677 11.1994 2.68433 14.7962C-1.19043 23.2262 6.37532 34.4681 14.8583 37.1145C19.4692 38.4979 20.9449 35.4545 18.8237 33.5178C16.7026 31.5811 11.8147 29.4599 11.538 22.6352C10.9846 8.17766 24.7251 8.98143 18.9162 5.85029C17.2559 5.29699 11.9991 4.37477 9.50899 5.94261Z" fill="#FFEDAA"/>
  <path d="M20.1149 1.42356C20.1149 1.42356 15.3192 2.43801 17.9937 3.82139C20.6683 5.20477 23.8039 8.70929 26.9395 9.26267C30.0752 9.81606 35.2397 11.845 35.4242 13.8739C35.6086 15.9028 34.8708 18.6695 36.5309 17.5629C38.1909 16.4562 40.2198 16.5484 40.4043 18.5773C40.5888 20.6062 40.9577 25.4019 39.4821 27.5231C38.0065 29.6442 34.7787 32.5955 31.643 33.1489C28.5074 33.7022 25.4639 32.4111 23.7116 34.9934C21.9593 37.5757 19.2848 39.6046 23.066 40.158C29.089 40.6605 40.4927 42.0766 43.6321 35.3627C46.03 31.3966 49.1656 26.9699 48.2434 21.0675C47.3212 15.1651 45.3844 9.07821 39.851 5.94262C34.3175 2.80694 26.4784 -0.144281 20.1149 1.42356Z" fill="#FFEDAA"/>
  <path d="M9.56536 12.1842C8.9437 12.4285 8.1846 12.9893 7.86979 13.6189C6.82675 16.688 11.9515 14.0482 12.3695 13.2276C13.0212 11.2726 10.6251 11.6543 9.56536 12.1842Z" fill="#FF80F3"/>
  <path d="M7.60909 20.8575C6.32965 20.9011 4.21463 23.7244 6.69613 23.5964C9.55031 23.1207 11.703 19.4928 7.60909 20.8575Z" fill="#FF80F3"/>
  <path d="M6.89169 28.4874C6.62295 28.4503 5.54966 29.0986 5.58743 29.4003C5.66593 30.0285 5.84253 30.6521 6.10917 31.2263C6.20988 31.4431 6.58737 31.2263 6.82647 31.2263C8.73517 31.2263 8.29474 28.0197 6.89169 28.4874Z" fill="#FF80F3"/>
  <path d="M17.6519 32.2045C17.1453 31.8737 16.6897 32.6676 16.4128 32.987C15.5262 34.0101 16.4566 35.2839 17.7171 35.0738C20.3144 34.6094 20.383 32.335 17.6519 32.2045Z" fill="#FF80F3"/>
  <path d="M25.2165 33.9652C24.478 33.4675 23.2494 33.9714 22.934 34.8129C22.3076 36.4834 28.1141 37.4409 27.4989 35.5955C27.0755 34.6229 26.1062 34.3061 25.2165 33.9652Z" fill="#FF80F3"/>
  <path d="M35.7158 29.0743C35.3502 29.574 33.3829 30.9068 34.3462 31.6176C35.4873 32.4326 37.4878 30.5545 37.9982 29.6612C39.2709 27.4339 36.5695 27.7938 35.7158 29.0743Z" fill="#FF80F3"/>
  <path d="M44.715 28.7482C44.8718 32.4742 48.2298 32.487 47.6497 30.1177C47.046 28.0051 43.6189 25.4599 44.715 28.7482Z" fill="#FF80F3"/>
  <path d="M38.3243 34.2261C37.3596 34.0715 36.3346 35.0063 35.781 35.726C34.9478 36.8092 36.1068 36.5964 37.933 36.8346C38.2813 36.8801 38.5923 36.5905 38.9112 36.4433C40.8824 35.5336 39.5784 33.599 38.3243 34.2261Z" fill="#FF80F3"/>
  <path d="M35.9765 4.09784C32.4917 6.96601 34.4788 8.64068 37.8678 6.51071C38.9913 5.54766 37.2438 3.14738 35.9765 4.09784Z" fill="#FF80F3"/>
  <path d="M42.8892 10.9451C42.453 10.842 40.3596 12.137 40.4111 12.3798C40.5501 13.0349 41.0356 13.6272 41.5849 14.0102C41.8482 14.1937 43.0019 13.7233 43.2805 13.6189C46.3995 12.4491 43.8062 10.2573 42.8892 10.9451Z" fill="#FF80F3"/>
  <path d="M41.1936 16.423C40.9826 16.3879 40.3105 16.6345 40.2807 16.8795C40.1834 17.678 40.0809 18.5133 40.2807 19.2924C42.9864 20.1327 43.7741 17.1784 41.1936 16.423Z" fill="#FF80F3"/>
  <path d="M46.2803 20.8575C45.9972 20.8853 45.1323 21.9917 45.3021 22.2269C45.8158 22.9382 46.5378 23.4872 47.2585 23.9877C48.115 24.5824 49.1763 20.401 46.9325 20.401C46.5305 20.4009 46.4038 20.487 46.2803 20.8575Z" fill="#FF80F3"/>
  <path d="M21.7602 2.40224C20.8361 2.49893 20.063 3.23065 19.543 3.96737C18.351 5.65611 21.3687 6.01708 22.5428 5.01076C24.3071 3.49843 22.5211 1.89492 21.7602 2.40224Z" fill="#FF80F3"/>
  <path d="M28.1512 5.72806C27.8274 6.00178 27.0903 6.65186 27.1078 7.09754C27.1419 7.96688 27.4007 8.82196 27.6947 9.64085C27.8384 10.0409 29.0174 9.2311 29.1294 9.11919C30.7615 7.48701 29.9169 4.55092 28.1512 5.72806Z" fill="#FF80F3"/>
  <path d="M4.93536 10.619C3.71922 11.2289 1.00002 13.4026 3.89205 13.684C6.66073 13.684 7.7516 10.619 4.93536 10.619Z" fill="#FF80F3"/>
  <path d="M3.04411 24.0529C2.35819 24.2247 1.99084 24.741 1.60941 25.2919C0.605886 26.7415 3.08747 27.0745 3.82663 26.3353C4.59403 25.5681 4.42714 23.5919 3.04411 24.0529Z" fill="#FF80F3"/>
  <path d="M14.1956 6.5759C13.429 6.35043 12.4549 6.6259 12.2392 7.48885C12.0336 8.31115 15.4137 9.16965 16.152 8.92355C17.8262 8.36544 15.1368 6.26214 14.1956 6.5759Z" fill="#FF80F3"/>
  <path d="M10.0624 12.2139C9.67982 12.3641 9.28773 12.5325 8.97878 12.8133C8.75314 13.0184 7.91816 14.1326 8.79431 14.0353C9.4916 13.9579 10.3163 13.4692 10.8694 13.067C12.1073 12.1667 10.7968 11.8466 10.0624 12.2139Z" fill="#FFB7F8"/>
  <path d="M4.94377 11.061C4.57965 11.1003 4.27997 11.4681 4.02154 11.7067C2.34652 13.2528 5.16425 12.545 5.47408 11.822C5.62016 11.4811 5.25622 10.983 4.94377 11.061Z" fill="#FFB7F8"/>
  <path d="M13.8896 6.84175C13.5863 6.72251 13.2039 6.89421 12.9905 7.11845C12.359 7.78146 15.0814 8.22155 15.5036 7.94844C15.8707 7.17501 14.4857 6.66254 13.8896 6.84175Z" fill="#FFB7F8"/>
  <path d="M21.7979 2.73777C21.1286 2.85562 20.722 3.47693 20.2992 3.95968C19.9215 4.47914 20.2556 4.77061 20.8065 4.6053C21.2678 4.46691 21.752 4.12666 22.0516 3.75222C22.3376 3.39475 22.2862 2.73777 21.7979 2.73777Z" fill="#FFB7F8"/>
  <path d="M28.8301 5.98868C28.3197 5.99899 27.9332 6.60816 28.0232 7.09536C28.2051 9.64216 30.0882 6.30305 28.8301 5.98868Z" fill="#FFB7F8"/>
  <path d="M36.3463 4.25948C35.7577 4.50715 35.4293 5.15495 35.1243 5.68893C34.4383 7.12336 36.8701 5.49817 36.9459 5.0434C37.0027 4.70201 36.7403 4.16104 36.3463 4.25948Z" fill="#FFB7F8"/>
  <path d="M43.4246 11.3146C42.8022 11.1716 42.2004 11.6833 41.7876 12.0524C40.3504 13.4897 43.3546 12.6991 43.7244 12.2369C43.983 11.9137 43.8626 11.3146 43.4246 11.3146Z" fill="#FFB7F8"/>
  <path d="M41.3035 17.1248C40.448 17.5676 40.7367 18.6804 41.7646 18.1855C42.2974 17.9288 41.7386 17.1248 41.3035 17.1248Z" fill="#FFB7F8"/>
  <path d="M46.9291 20.9291C46.5756 20.9103 46.343 21.4105 46.2605 21.713C46.0741 22.3964 47.1414 22.2951 47.4594 21.8975C47.7718 21.507 47.4584 20.7175 46.9291 20.9291Z" fill="#FFB7F8"/>
  <path d="M45.0386 27.846C45.2061 28.8047 45.7594 29.8018 46.5141 30.4284C46.9999 30.6946 47.0665 29.8597 47.0214 29.6444C46.8777 28.9573 45.8472 27.846 45.0386 27.846Z" fill="#FFB7F8"/>
  <path d="M36.8306 28.8374C36.1013 28.99 35.6243 29.7448 35.1244 30.2438C33.4287 32.1908 37.9724 29.4083 36.8306 28.8374Z" fill="#FFB7F8"/>
  <path d="M38.1218 34.5091C37.775 34.6352 37.6366 34.6646 37.2917 34.9703C35.4755 36.3904 40.3682 35.6364 38.1218 34.5091Z" fill="#FFB7F8"/>
  <path d="M24.726 34.417C23.9955 33.8967 22.642 35.0783 25.1641 35.4084C26.5922 35.6634 25.1683 34.3065 24.726 34.417Z" fill="#FFB7F8"/>
  <path d="M18.3625 32.8952C17.7465 32.5241 16.414 33.1639 17.2559 33.587C17.8425 33.8215 19.0595 33.5921 18.3625 32.8952Z" fill="#FFB7F8"/>
  <path d="M6.81137 28.9296C5.80093 29.1935 6.18332 30.3476 7.15721 29.8518C7.58584 29.6018 7.25189 28.7093 6.81137 28.9296Z" fill="#FFB7F8"/>
  <path d="M3.09938 24.2492C0.117909 26.2098 4.59028 25.8834 3.09938 24.2492V24.2492Z" fill="#FFB7F8"/>
  <path d="M8.88658 20.9291C8.19306 20.9197 7.61004 21.4279 7.15736 21.8974C5.61295 23.6433 10.1666 21.8893 8.88658 20.9291Z" fill="#FFB7F8"/>
  </svg>
  